<svg width="42" height="42" viewBox="0 0 42 42" fill="none" xmlns="http://www.w3.org/2000/svg">
<path d="M21.6182 3.92222L21.6182 3.92219C21.6255 3.25167 21.6292 2.73635 21.6217 2.34087C21.6143 1.94605 21.5957 1.6676 21.5576 1.47214C21.5196 1.27741 21.4605 1.1547 21.363 1.08409C21.2668 1.01442 21.1437 1.00371 21.0025 1.00371C20.7916 1.00371 20.6288 1.08939 20.5215 1.2607C20.4451 1.3756 20.4062 1.5347 20.3879 1.91094L21.6182 3.92222ZM21.6182 3.92222C21.6085 4.78067 21.5938 5.3865 21.5706 5.78894C21.559 5.99 21.5452 6.14158 21.5285 6.24901C21.5201 6.30264 21.5109 6.34662 21.5004 6.38082C21.4905 6.41313 21.4774 6.44387 21.4573 6.46401C21.4093 6.51201 21.3373 6.54427 21.2597 6.56479C21.1811 6.58559 21.0913 6.59572 21.0025 6.59572C20.9136 6.59572 20.8238 6.58559 20.7452 6.56479C20.6676 6.54427 20.5956 6.51201 20.5476 6.46401C20.5275 6.44387 20.5144 6.41313 20.5045 6.38082C20.494 6.34662 20.4848 6.30264 20.4764 6.24901C20.4597 6.14158 20.4459 5.99 20.4343 5.78894C20.4111 5.38651 20.3964 4.78071 20.3867 3.92229L21.6182 3.92222Z" fill="#FF3E54" stroke="#FF3E54" stroke-width="0.1"/>
<path d="M11.011 3.68163L11.011 3.68162L11.0121 3.68115C11.0804 3.64959 11.163 3.62653 11.2421 3.61378C11.3206 3.60111 11.4 3.5979 11.4614 3.60907L11.4614 3.60896L11.4646 3.60975C11.4809 3.61384 11.4957 3.62266 11.508 3.63157C11.5209 3.64091 11.5343 3.65285 11.5482 3.66663C11.576 3.69418 11.6086 3.73212 11.6453 3.77911C11.719 3.87326 11.8129 4.00784 11.9247 4.17833C12.1485 4.51956 12.4465 5.00814 12.8027 5.61314L12.8029 5.61351C12.8648 5.72073 12.9239 5.82313 12.9804 5.92095C13.573 6.9472 13.8749 7.47008 14.0064 7.76804C14.0783 7.93086 14.104 8.03615 14.0918 8.12421C14.0812 8.20012 14.0421 8.25845 14.0006 8.32022C13.9944 8.32955 13.988 8.33897 13.9818 8.34853L13.9816 8.34884C13.7696 8.66675 13.2915 8.7124 13.0438 8.42221C13.0313 8.408 13.0123 8.38086 12.989 8.34569C12.9648 8.30907 12.934 8.26073 12.8976 8.20226C12.8248 8.08526 12.7289 7.92673 12.6167 7.73822C12.3921 7.36115 12.1018 6.86341 11.7993 6.33649L11.7993 6.3364C11.2151 5.31417 10.8946 4.71851 10.7792 4.34995C10.7214 4.16541 10.7115 4.02755 10.755 3.91851C10.7991 3.80815 10.8929 3.73944 11.011 3.68163Z" fill="#FF3E54" stroke="#FF3E54" stroke-width="0.1"/>
<path d="M30.5042 3.63155L30.5042 3.63146L30.5071 3.63047C30.9085 3.49315 31.2951 3.75872 31.2951 4.17528C31.2951 4.18962 31.2918 4.20559 31.2878 4.22051C31.2836 4.23632 31.2776 4.25472 31.2701 4.27521C31.2551 4.31623 31.2335 4.3682 31.2062 4.42917C31.1517 4.55124 31.0736 4.71207 30.9791 4.89883C30.7901 5.27251 30.5343 5.75196 30.2671 6.23696C29.9999 6.72198 29.721 7.21295 29.4856 7.60967C29.2516 8.00406 29.0578 8.31018 28.9615 8.42182C28.847 8.55801 28.6672 8.61791 28.4944 8.61005C28.3217 8.6022 28.1476 8.5263 28.0441 8.37978C27.9983 8.31864 27.9578 8.25021 27.9285 8.18908C27.9138 8.15839 27.9016 8.12889 27.893 8.10253C27.8847 8.07715 27.8785 8.05105 27.8785 8.02846C27.8785 8.01301 27.8831 7.99581 27.8879 7.98108C27.8931 7.96486 27.9005 7.94559 27.9098 7.92387C27.9282 7.88033 27.9549 7.82409 27.9885 7.75742C28.0557 7.62392 28.1516 7.44602 28.2669 7.23927C28.4975 6.82563 28.8066 6.29474 29.1208 5.76895C29.4349 5.24315 29.7543 4.72204 30.0057 4.32794C30.1314 4.13097 30.2403 3.96529 30.3232 3.84652C30.3645 3.78721 30.3999 3.73896 30.4278 3.70414C30.4417 3.68679 30.4544 3.67204 30.4655 3.6607C30.4746 3.65133 30.4884 3.63806 30.5042 3.63155Z" fill="#FF3E54" stroke="#FF3E54" stroke-width="0.1"/>
<mask id="path-4-outside-1_216_596" maskUnits="userSpaceOnUse" x="10.2455" y="8" width="21" height="34" fill="black">
<rect fill="white" x="10.2455" y="8" width="21" height="34"/>
<path d="M19.9587 8.67228C17.1493 8.93567 14.4667 10.5745 12.8669 12.9937C12.2523 13.9204 11.9109 14.6423 11.5695 15.7836C11.228 16.9054 11.1403 19.0612 11.3841 20.2611C11.7548 22.0658 12.4962 23.5387 13.7546 24.9922C15.0032 26.4164 15.2568 26.7579 15.5397 27.3627C15.7055 27.6846 15.8616 28.1528 15.8909 28.3869C15.9494 28.7966 15.9397 28.8161 15.608 28.9332C15.169 29.0893 14.5837 29.6648 14.3594 30.1623C14.096 30.7476 14.1155 31.6938 14.4081 32.3279C14.6423 32.8352 15.2276 33.4009 15.6177 33.4985C15.7348 33.5375 15.8324 33.5765 15.8324 33.596C15.8324 33.6058 15.7348 33.7911 15.6177 33.996C15.4324 34.2984 15.3934 34.513 15.3934 35.1471C15.3934 35.8299 15.4324 35.986 15.6665 36.3957C15.9592 36.8932 16.603 37.42 17.0127 37.5077C17.2371 37.5468 17.2858 37.6151 17.3346 38.015C17.4809 39.0978 18.3101 40.1806 19.3929 40.7171C19.9294 40.9707 20.066 41 21.0025 41C21.9097 41 22.095 40.9707 22.5827 40.7366C23.646 40.2391 24.524 39.088 24.6703 38.015C24.7191 37.6151 24.7678 37.5468 24.9922 37.5077C25.4019 37.42 26.0457 36.8932 26.3384 36.3957C26.5725 35.986 26.6115 35.8299 26.6115 35.1471C26.6115 34.513 26.5725 34.2984 26.3969 33.996C26.2701 33.7911 26.1725 33.6058 26.1725 33.596C26.1725 33.5765 26.2701 33.5375 26.3969 33.4985C26.7773 33.4009 27.3626 32.8352 27.5968 32.3279C27.8894 31.6938 27.9089 30.7476 27.6455 30.1623C27.4212 29.6648 26.8359 29.0893 26.3969 28.9332C26.0652 28.8161 26.0555 28.7966 26.114 28.3869C26.2311 27.5285 26.7091 26.7774 28.2503 24.9922C29.5185 23.5387 30.2501 22.0658 30.6208 20.2611C30.8646 19.0417 30.7769 16.9152 30.4257 15.7348C29.2453 11.7841 26.0847 9.12101 22.0462 8.67228C21.5292 8.61375 21.0317 8.57473 20.9342 8.57473C20.8366 8.58449 20.3976 8.62351 19.9587 8.67228ZM23.3436 10.0282C26.3091 10.8866 28.66 13.2961 29.4502 16.3201C29.7233 17.3541 29.7038 19.5685 29.4112 20.5928C28.9624 22.1535 28.4259 23.09 27.0993 24.602C25.6653 26.2408 25.3044 26.8847 24.9629 28.3869C24.9044 28.6601 24.8947 28.6601 24.0752 28.6601H23.2461V25.4897V22.3194H24.1045C25.1971 22.3194 25.8701 22.1243 26.3872 21.656C27.7431 20.4367 27.4504 18.1931 25.8311 17.3932C25.5385 17.2468 25.2361 17.1981 24.6508 17.1981C23.9484 17.1981 23.8119 17.2273 23.3924 17.4907C22.4169 18.0955 22.0755 18.8564 22.0755 20.4172V21.2463H21.0122H19.9587L19.9099 20.144C19.8416 18.632 19.5392 18.0272 18.5735 17.4614C18.1833 17.2371 18.0175 17.1981 17.3444 17.1981C16.7688 17.1981 16.4664 17.2468 16.1738 17.3932C14.5545 18.1931 14.2618 20.4367 15.6177 21.656C16.1348 22.1243 16.8078 22.3194 17.9004 22.3194H18.7588V25.4897V28.6601H17.9297C17.1102 28.6601 17.1005 28.6601 17.0517 28.3869C16.7396 26.9627 16.3201 26.2213 14.8666 24.5532C12.9449 22.3682 12.2328 20.505 12.3499 18.037C12.4572 15.647 13.4131 13.6375 15.2276 11.9792C16.3103 10.9744 17.7833 10.2038 19.1978 9.89165C20.1928 9.66728 22.3681 9.74532 23.3436 10.0282ZM17.9394 18.4272C18.6027 18.7491 18.7588 19.0905 18.7588 20.2611V21.2463H18.0565C17.1102 21.2463 16.6323 21.1 16.2518 20.7001C15.7348 20.144 15.7055 19.3832 16.1933 18.7979C16.681 18.2223 17.2663 18.0955 17.9394 18.4272ZM25.4799 18.4857C25.9482 18.8369 26.1238 19.1783 26.1238 19.7148C26.1238 20.0855 26.0652 20.3099 25.8994 20.544C25.5482 21.0317 25.1678 21.1781 24.1533 21.2268L23.2461 21.2659V20.2709C23.2461 19.4319 23.2753 19.2173 23.4412 18.9539C23.8606 18.2809 24.8849 18.0467 25.4799 18.4857ZM22.0755 25.4897V28.6601H21.0025H19.9294V25.4897V22.3194H21.0025H22.0755V25.4897ZM26.0555 30.0257C27.0115 30.611 26.9724 31.9084 25.9774 32.4352C25.558 32.6596 25.5482 32.6596 21.0025 32.6596C16.4567 32.6596 16.4469 32.6596 16.0275 32.4352C15.0325 31.9084 14.9934 30.611 15.9494 30.0257C16.2616 29.8404 16.4567 29.8306 21.0025 29.8306C25.5482 29.8306 25.7433 29.8404 26.0555 30.0257ZM24.7776 33.8984C25.158 34.074 25.4604 34.4935 25.5482 34.9715C25.6458 35.469 25.2848 36.1128 24.7678 36.3567C24.3776 36.5518 24.1923 36.5615 21.0025 36.5615C17.8126 36.5615 17.6273 36.5518 17.2371 36.3567C16.2226 35.8689 16.203 34.3959 17.2078 33.8984C17.5004 33.7619 17.9687 33.7326 20.9829 33.7326C24.007 33.7326 24.4752 33.7521 24.7776 33.8984ZM23.6363 37.7516C23.6363 38.015 23.168 38.8734 22.8559 39.1758C22.3096 39.7319 21.8316 39.927 21.0025 39.927C20.1733 39.927 19.6953 39.7319 19.149 39.1758C18.8369 38.8734 18.3686 38.015 18.3686 37.7516C18.3686 37.6638 18.9637 37.6346 21.0025 37.6346C23.0412 37.6346 23.6363 37.6638 23.6363 37.7516Z"/>
</mask>
<path d="M19.9587 8.67228C17.1493 8.93567 14.4667 10.5745 12.8669 12.9937C12.2523 13.9204 11.9109 14.6423 11.5695 15.7836C11.228 16.9054 11.1403 19.0612 11.3841 20.2611C11.7548 22.0658 12.4962 23.5387 13.7546 24.9922C15.0032 26.4164 15.2568 26.7579 15.5397 27.3627C15.7055 27.6846 15.8616 28.1528 15.8909 28.3869C15.9494 28.7966 15.9397 28.8161 15.608 28.9332C15.169 29.0893 14.5837 29.6648 14.3594 30.1623C14.096 30.7476 14.1155 31.6938 14.4081 32.3279C14.6423 32.8352 15.2276 33.4009 15.6177 33.4985C15.7348 33.5375 15.8324 33.5765 15.8324 33.596C15.8324 33.6058 15.7348 33.7911 15.6177 33.996C15.4324 34.2984 15.3934 34.513 15.3934 35.1471C15.3934 35.8299 15.4324 35.986 15.6665 36.3957C15.9592 36.8932 16.603 37.42 17.0127 37.5077C17.2371 37.5468 17.2858 37.6151 17.3346 38.015C17.4809 39.0978 18.3101 40.1806 19.3929 40.7171C19.9294 40.9707 20.066 41 21.0025 41C21.9097 41 22.095 40.9707 22.5827 40.7366C23.646 40.2391 24.524 39.088 24.6703 38.015C24.7191 37.6151 24.7678 37.5468 24.9922 37.5077C25.4019 37.42 26.0457 36.8932 26.3384 36.3957C26.5725 35.986 26.6115 35.8299 26.6115 35.1471C26.6115 34.513 26.5725 34.2984 26.3969 33.996C26.2701 33.7911 26.1725 33.6058 26.1725 33.596C26.1725 33.5765 26.2701 33.5375 26.3969 33.4985C26.7773 33.4009 27.3626 32.8352 27.5968 32.3279C27.8894 31.6938 27.9089 30.7476 27.6455 30.1623C27.4212 29.6648 26.8359 29.0893 26.3969 28.9332C26.0652 28.8161 26.0555 28.7966 26.114 28.3869C26.2311 27.5285 26.7091 26.7774 28.2503 24.9922C29.5185 23.5387 30.2501 22.0658 30.6208 20.2611C30.8646 19.0417 30.7769 16.9152 30.4257 15.7348C29.2453 11.7841 26.0847 9.12101 22.0462 8.67228C21.5292 8.61375 21.0317 8.57473 20.9342 8.57473C20.8366 8.58449 20.3976 8.62351 19.9587 8.67228ZM23.3436 10.0282C26.3091 10.8866 28.66 13.2961 29.4502 16.3201C29.7233 17.3541 29.7038 19.5685 29.4112 20.5928C28.9624 22.1535 28.4259 23.09 27.0993 24.602C25.6653 26.2408 25.3044 26.8847 24.9629 28.3869C24.9044 28.6601 24.8947 28.6601 24.0752 28.6601H23.2461V25.4897V22.3194H24.1045C25.1971 22.3194 25.8701 22.1243 26.3872 21.656C27.7431 20.4367 27.4504 18.1931 25.8311 17.3932C25.5385 17.2468 25.2361 17.1981 24.6508 17.1981C23.9484 17.1981 23.8119 17.2273 23.3924 17.4907C22.4169 18.0955 22.0755 18.8564 22.0755 20.4172V21.2463H21.0122H19.9587L19.9099 20.144C19.8416 18.632 19.5392 18.0272 18.5735 17.4614C18.1833 17.2371 18.0175 17.1981 17.3444 17.1981C16.7688 17.1981 16.4664 17.2468 16.1738 17.3932C14.5545 18.1931 14.2618 20.4367 15.6177 21.656C16.1348 22.1243 16.8078 22.3194 17.9004 22.3194H18.7588V25.4897V28.6601H17.9297C17.1102 28.6601 17.1005 28.6601 17.0517 28.3869C16.7396 26.9627 16.3201 26.2213 14.8666 24.5532C12.9449 22.3682 12.2328 20.505 12.3499 18.037C12.4572 15.647 13.4131 13.6375 15.2276 11.9792C16.3103 10.9744 17.7833 10.2038 19.1978 9.89165C20.1928 9.66728 22.3681 9.74532 23.3436 10.0282ZM17.9394 18.4272C18.6027 18.7491 18.7588 19.0905 18.7588 20.2611V21.2463H18.0565C17.1102 21.2463 16.6323 21.1 16.2518 20.7001C15.7348 20.144 15.7055 19.3832 16.1933 18.7979C16.681 18.2223 17.2663 18.0955 17.9394 18.4272ZM25.4799 18.4857C25.9482 18.8369 26.1238 19.1783 26.1238 19.7148C26.1238 20.0855 26.0652 20.3099 25.8994 20.544C25.5482 21.0317 25.1678 21.1781 24.1533 21.2268L23.2461 21.2659V20.2709C23.2461 19.4319 23.2753 19.2173 23.4412 18.9539C23.8606 18.2809 24.8849 18.0467 25.4799 18.4857ZM22.0755 25.4897V28.6601H21.0025H19.9294V25.4897V22.3194H21.0025H22.0755V25.4897ZM26.0555 30.0257C27.0115 30.611 26.9724 31.9084 25.9774 32.4352C25.558 32.6596 25.5482 32.6596 21.0025 32.6596C16.4567 32.6596 16.4469 32.6596 16.0275 32.4352C15.0325 31.9084 14.9934 30.611 15.9494 30.0257C16.2616 29.8404 16.4567 29.8306 21.0025 29.8306C25.5482 29.8306 25.7433 29.8404 26.0555 30.0257ZM24.7776 33.8984C25.158 34.074 25.4604 34.4935 25.5482 34.9715C25.6458 35.469 25.2848 36.1128 24.7678 36.3567C24.3776 36.5518 24.1923 36.5615 21.0025 36.5615C17.8126 36.5615 17.6273 36.5518 17.2371 36.3567C16.2226 35.8689 16.203 34.3959 17.2078 33.8984C17.5004 33.7619 17.9687 33.7326 20.9829 33.7326C24.007 33.7326 24.4752 33.7521 24.7776 33.8984ZM23.6363 37.7516C23.6363 38.015 23.168 38.8734 22.8559 39.1758C22.3096 39.7319 21.8316 39.927 21.0025 39.927C20.1733 39.927 19.6953 39.7319 19.149 39.1758C18.8369 38.8734 18.3686 38.015 18.3686 37.7516C18.3686 37.6638 18.9637 37.6346 21.0025 37.6346C23.0412 37.6346 23.6363 37.6638 23.6363 37.7516Z" fill="#FF3E54"/>
<path d="M19.9587 8.67228C17.1493 8.93567 14.4667 10.5745 12.8669 12.9937C12.2523 13.9204 11.9109 14.6423 11.5695 15.7836C11.228 16.9054 11.1403 19.0612 11.3841 20.2611C11.7548 22.0658 12.4962 23.5387 13.7546 24.9922C15.0032 26.4164 15.2568 26.7579 15.5397 27.3627C15.7055 27.6846 15.8616 28.1528 15.8909 28.3869C15.9494 28.7966 15.9397 28.8161 15.608 28.9332C15.169 29.0893 14.5837 29.6648 14.3594 30.1623C14.096 30.7476 14.1155 31.6938 14.4081 32.3279C14.6423 32.8352 15.2276 33.4009 15.6177 33.4985C15.7348 33.5375 15.8324 33.5765 15.8324 33.596C15.8324 33.6058 15.7348 33.7911 15.6177 33.996C15.4324 34.2984 15.3934 34.513 15.3934 35.1471C15.3934 35.8299 15.4324 35.986 15.6665 36.3957C15.9592 36.8932 16.603 37.42 17.0127 37.5077C17.2371 37.5468 17.2858 37.6151 17.3346 38.015C17.4809 39.0978 18.3101 40.1806 19.3929 40.7171C19.9294 40.9707 20.066 41 21.0025 41C21.9097 41 22.095 40.9707 22.5827 40.7366C23.646 40.2391 24.524 39.088 24.6703 38.015C24.7191 37.6151 24.7678 37.5468 24.9922 37.5077C25.4019 37.42 26.0457 36.8932 26.3384 36.3957C26.5725 35.986 26.6115 35.8299 26.6115 35.1471C26.6115 34.513 26.5725 34.2984 26.3969 33.996C26.2701 33.7911 26.1725 33.6058 26.1725 33.596C26.1725 33.5765 26.2701 33.5375 26.3969 33.4985C26.7773 33.4009 27.3626 32.8352 27.5968 32.3279C27.8894 31.6938 27.9089 30.7476 27.6455 30.1623C27.4212 29.6648 26.8359 29.0893 26.3969 28.9332C26.0652 28.8161 26.0555 28.7966 26.114 28.3869C26.2311 27.5285 26.7091 26.7774 28.2503 24.9922C29.5185 23.5387 30.2501 22.0658 30.6208 20.2611C30.8646 19.0417 30.7769 16.9152 30.4257 15.7348C29.2453 11.7841 26.0847 9.12101 22.0462 8.67228C21.5292 8.61375 21.0317 8.57473 20.9342 8.57473C20.8366 8.58449 20.3976 8.62351 19.9587 8.67228ZM23.3436 10.0282C26.3091 10.8866 28.66 13.2961 29.4502 16.3201C29.7233 17.3541 29.7038 19.5685 29.4112 20.5928C28.9624 22.1535 28.4259 23.09 27.0993 24.602C25.6653 26.2408 25.3044 26.8847 24.9629 28.3869C24.9044 28.6601 24.8947 28.6601 24.0752 28.6601H23.2461V25.4897V22.3194H24.1045C25.1971 22.3194 25.8701 22.1243 26.3872 21.656C27.7431 20.4367 27.4504 18.1931 25.8311 17.3932C25.5385 17.2468 25.2361 17.1981 24.6508 17.1981C23.9484 17.1981 23.8119 17.2273 23.3924 17.4907C22.4169 18.0955 22.0755 18.8564 22.0755 20.4172V21.2463H21.0122H19.9587L19.9099 20.144C19.8416 18.632 19.5392 18.0272 18.5735 17.4614C18.1833 17.2371 18.0175 17.1981 17.3444 17.1981C16.7688 17.1981 16.4664 17.2468 16.1738 17.3932C14.5545 18.1931 14.2618 20.4367 15.6177 21.656C16.1348 22.1243 16.8078 22.3194 17.9004 22.3194H18.7588V25.4897V28.6601H17.9297C17.1102 28.6601 17.1005 28.6601 17.0517 28.3869C16.7396 26.9627 16.3201 26.2213 14.8666 24.5532C12.9449 22.3682 12.2328 20.505 12.3499 18.037C12.4572 15.647 13.4131 13.6375 15.2276 11.9792C16.3103 10.9744 17.7833 10.2038 19.1978 9.89165C20.1928 9.66728 22.3681 9.74532 23.3436 10.0282ZM17.9394 18.4272C18.6027 18.7491 18.7588 19.0905 18.7588 20.2611V21.2463H18.0565C17.1102 21.2463 16.6323 21.1 16.2518 20.7001C15.7348 20.144 15.7055 19.3832 16.1933 18.7979C16.681 18.2223 17.2663 18.0955 17.9394 18.4272ZM25.4799 18.4857C25.9482 18.8369 26.1238 19.1783 26.1238 19.7148C26.1238 20.0855 26.0652 20.3099 25.8994 20.544C25.5482 21.0317 25.1678 21.1781 24.1533 21.2268L23.2461 21.2659V20.2709C23.2461 19.4319 23.2753 19.2173 23.4412 18.9539C23.8606 18.2809 24.8849 18.0467 25.4799 18.4857ZM22.0755 25.4897V28.6601H21.0025H19.9294V25.4897V22.3194H21.0025H22.0755V25.4897ZM26.0555 30.0257C27.0115 30.611 26.9724 31.9084 25.9774 32.4352C25.558 32.6596 25.5482 32.6596 21.0025 32.6596C16.4567 32.6596 16.4469 32.6596 16.0275 32.4352C15.0325 31.9084 14.9934 30.611 15.9494 30.0257C16.2616 29.8404 16.4567 29.8306 21.0025 29.8306C25.5482 29.8306 25.7433 29.8404 26.0555 30.0257ZM24.7776 33.8984C25.158 34.074 25.4604 34.4935 25.5482 34.9715C25.6458 35.469 25.2848 36.1128 24.7678 36.3567C24.3776 36.5518 24.1923 36.5615 21.0025 36.5615C17.8126 36.5615 17.6273 36.5518 17.2371 36.3567C16.2226 35.8689 16.203 34.3959 17.2078 33.8984C17.5004 33.7619 17.9687 33.7326 20.9829 33.7326C24.007 33.7326 24.4752 33.7521 24.7776 33.8984ZM23.6363 37.7516C23.6363 38.015 23.168 38.8734 22.8559 39.1758C22.3096 39.7319 21.8316 39.927 21.0025 39.927C20.1733 39.927 19.6953 39.7319 19.149 39.1758C18.8369 38.8734 18.3686 38.015 18.3686 37.7516C18.3686 37.6638 18.9637 37.6346 21.0025 37.6346C23.0412 37.6346 23.6363 37.6638 23.6363 37.7516Z" stroke="#FF3E54" stroke-width="0.2" mask="url(#path-4-outside-1_216_596)"/>
<path d="M5.76957 12.959L5.76954 12.959C4.66478 12.3214 4.05907 11.9599 3.76774 11.702C3.62195 11.573 3.54512 11.4618 3.53216 11.3464C3.51921 11.2312 3.57189 11.126 3.64564 11.0153C3.7142 10.9088 3.79202 10.8272 3.90715 10.7929C4.02047 10.759 4.16013 10.774 4.3458 10.8355C4.71638 10.9582 5.30433 11.2785 6.3072 11.8578C6.82929 12.1554 7.32213 12.4433 7.69673 12.6666C7.88403 12.7783 8.0419 12.8739 8.15914 12.9465C8.27483 13.0181 8.35423 13.0694 8.38155 13.0912L8.38158 13.0912L8.38324 13.0926C8.51444 13.2074 8.57157 13.3872 8.56242 13.5597C8.55328 13.7321 8.47747 13.9062 8.33095 14.0096C8.26981 14.0554 8.20137 14.0959 8.14024 14.1252C8.10956 14.1399 8.08005 14.1521 8.0537 14.1608C8.02832 14.169 8.00222 14.1753 7.97963 14.1753C7.96967 14.1753 7.96074 14.1725 7.95725 14.1713C7.95209 14.1697 7.94647 14.1676 7.94077 14.1652C7.92926 14.1605 7.9146 14.1539 7.89733 14.1456C7.86265 14.129 7.81503 14.1047 7.75625 14.0738C7.63855 14.012 7.47448 13.9228 7.27622 13.813C6.87961 13.5933 6.34527 13.2907 5.76957 12.959Z" fill="#FF3E54" stroke="#FF3E54" stroke-width="0.1"/>
<path d="M33.6032 13.1112L33.6032 13.1112C33.4743 13.2177 33.4258 13.3974 33.4401 13.5673C33.4544 13.7374 33.5323 13.9112 33.6741 14.0097C33.7352 14.0555 33.8035 14.096 33.8646 14.1252C33.8953 14.1399 33.9248 14.1521 33.9512 14.1608C33.9765 14.169 34.0026 14.1753 34.0252 14.1753C34.0352 14.1753 34.0441 14.1725 34.0476 14.1713C34.0528 14.1697 34.0584 14.1676 34.0641 14.1652C34.0756 14.1605 34.0903 14.1539 34.1075 14.1456C34.1422 14.129 34.1898 14.1047 34.2486 14.0738C34.3663 14.012 34.5304 13.9228 34.7286 13.813C35.1252 13.5933 35.6596 13.2907 36.2353 12.959L36.2353 12.959C37.3401 12.3214 37.9458 11.9599 38.2371 11.702C38.3829 11.573 38.4597 11.4618 38.4727 11.3464C38.4856 11.2311 38.4329 11.1259 38.3591 11.0152M33.6032 13.1112L38.3174 11.0427M33.6032 13.1112L33.6043 13.1103C33.6288 13.0913 33.7047 13.0421 33.8172 12.9717C33.931 12.9005 34.0852 12.8059 34.2688 12.6948C34.6361 12.4728 35.1217 12.1849 35.6389 11.8872M33.6032 13.1112L35.664 11.9304M38.3591 11.0152C38.3591 11.0151 38.359 11.0151 38.359 11.015L38.3174 11.0427M38.3591 11.0152C38.3592 11.0153 38.3592 11.0154 38.3593 11.0154L38.3174 11.0427M38.3591 11.0152C38.2878 10.9057 38.2061 10.8231 38.0866 10.789C37.9691 10.7555 37.8245 10.7716 37.6333 10.8356C37.2517 10.9632 36.6516 11.2932 35.6389 11.8872M38.3174 11.0427C38.0442 10.6233 37.6931 10.7403 35.664 11.9304M35.6389 11.8872C35.639 11.8871 35.639 11.8871 35.6391 11.8871L35.664 11.9304M35.6389 11.8872C35.6389 11.8872 35.6388 11.8873 35.6387 11.8873L35.664 11.9304" fill="#FF3E54" stroke="#FF3E54" stroke-width="0.1"/>
<path d="M3.85393 20.4355L3.85383 20.4355C2.81553 20.4257 2.20421 20.4232 1.82938 20.4404C1.45801 20.4574 1.30659 20.4935 1.2003 20.5715C0.859225 20.8067 0.870362 21.3079 1.21147 21.5319C1.3264 21.6085 1.48542 21.6475 1.86216 21.6658L3.85393 20.4355ZM3.85393 20.4355C4.71726 20.4452 5.32795 20.4599 5.73404 20.4831C5.93692 20.4947 6.09001 20.5085 6.19848 20.5252C6.25263 20.5335 6.29701 20.5428 6.33149 20.5533C6.36399 20.5631 6.39501 20.5762 6.41524 20.5964C6.46323 20.6444 6.4955 20.7164 6.51601 20.794C6.53682 20.8726 6.54694 20.9624 6.54694 21.0512C6.54694 21.1401 6.53682 21.2299 6.51601 21.3085C6.4955 21.3861 6.46323 21.4581 6.41524 21.5061C6.3951 21.5262 6.36436 21.5393 6.33205 21.5492C6.29784 21.5597 6.25386 21.5689 6.20023 21.5773C6.0928 21.594 5.94122 21.6078 5.74016 21.6194C5.33773 21.6426 4.73193 21.6573 3.87351 21.667L3.85393 20.4355Z" fill="#FF3E54" stroke="#FF3E54" stroke-width="0.1"/>
<path d="M35.7827 21.5954L35.7827 21.5954C35.8051 21.604 35.8426 21.6105 35.8873 21.6161C35.9341 21.622 35.9945 21.6276 36.0665 21.6329C36.2107 21.6435 36.4035 21.653 36.6306 21.6609C37.0848 21.6768 37.6781 21.6865 38.2979 21.6865C38.927 21.6865 39.4113 21.6841 39.7835 21.6719C40.1551 21.6597 40.4181 21.6377 40.6034 21.5976C40.7881 21.5577 40.9051 21.4978 40.9726 21.402C41.0392 21.3074 41.0501 21.188 41.0501 21.0512C41.0501 20.9148 41.0399 20.7952 40.9736 20.7008C40.9063 20.6048 40.789 20.5453 40.6031 20.506C40.4167 20.4666 40.1512 20.4455 39.7751 20.4347L35.7827 21.5954ZM35.7827 21.5954L35.7823 21.5952M35.7827 21.5954L35.7823 21.5952M35.7823 21.5952C35.5502 21.5035 35.4317 21.2779 35.4251 21.0576M35.7823 21.5952L35.4251 21.0576M35.4251 21.0576C35.4186 20.8374 35.5238 20.6099 35.7524 20.5172M35.4251 21.0576L35.7524 20.5172M35.7524 20.5172C35.7743 20.5082 35.8112 20.5017 35.8543 20.4961C35.8999 20.4902 35.9593 20.4846 36.0303 20.4793C36.1726 20.4688 36.3638 20.4593 36.5903 20.4513C37.0434 20.4355 37.639 20.4257 38.2686 20.4257C38.2686 20.4257 38.2685 20.4257 38.2685 20.4257L35.7524 20.5172Z" fill="#FF3E54" stroke="#FF3E54" stroke-width="0.1"/>
<path d="M5.76954 29.1435L5.76957 29.1435C6.34527 28.8118 6.87961 28.5092 7.27622 28.2895C7.47448 28.1797 7.63855 28.0905 7.75625 28.0287C7.81503 27.9978 7.86265 27.9735 7.89733 27.9569C7.9146 27.9486 7.92926 27.942 7.94077 27.9372C7.94647 27.9349 7.95209 27.9328 7.95725 27.9311C7.96074 27.93 7.96967 27.9272 7.97963 27.9272C8.00222 27.9272 8.02832 27.9334 8.0537 27.9417C8.08005 27.9504 8.10956 27.9626 8.14024 27.9773C8.20137 28.0065 8.2698 28.0471 8.33093 28.0929C8.47746 28.1963 8.55328 28.3704 8.56242 28.5428C8.57157 28.7153 8.51444 28.8951 8.38324 29.0099L8.38327 29.0099L8.38155 29.0113C8.35423 29.0331 8.27483 29.0844 8.15914 29.156C8.0419 29.2286 7.88403 29.3242 7.69673 29.4359C7.32212 29.6592 6.82927 29.9471 6.30716 30.2447C5.30431 30.824 4.71637 31.1443 4.3458 31.267C4.16013 31.3285 4.02047 31.3435 3.90715 31.3096C3.79202 31.2753 3.7142 31.1937 3.64564 31.0872C3.57189 30.9765 3.51921 30.8713 3.53216 30.7561C3.54512 30.6407 3.62195 30.5295 3.76774 30.4005C4.05907 30.1426 4.66478 29.7811 5.76954 29.1435Z" fill="#FF3E54" stroke="#FF3E54" stroke-width="0.1"/>
<path d="M33.6043 28.9922L33.6043 28.9922L33.6032 28.9912C33.4743 28.8847 33.4258 28.7051 33.4401 28.5352C33.4544 28.3651 33.5323 28.1913 33.6741 28.0927C33.7352 28.047 33.8035 28.0065 33.8646 27.9772C33.8953 27.9625 33.9248 27.9503 33.9512 27.9417C33.9765 27.9334 34.0026 27.9272 34.0252 27.9272C34.0352 27.9272 34.0441 27.93 34.0476 27.9311C34.0528 27.9328 34.0584 27.9349 34.0641 27.9372C34.0756 27.9419 34.0903 27.9486 34.1075 27.9569C34.1422 27.9735 34.1898 27.9978 34.2486 28.0287C34.3663 28.0905 34.5304 28.1797 34.7286 28.2895C35.1252 28.5092 35.6596 28.8117 36.2353 29.1435L36.2353 29.1435C37.3401 29.7811 37.9458 30.1426 38.2371 30.4004C38.3829 30.5295 38.4597 30.6407 38.4727 30.756C38.4856 30.8713 38.433 30.9765 38.3592 31.0871C38.2908 31.1935 38.2136 31.2753 38.0987 31.3093C37.9857 31.3429 37.8462 31.3271 37.66 31.2644C37.2883 31.1393 36.6956 30.8142 35.6781 30.2251C35.1511 29.9226 34.6559 29.6323 34.2813 29.409C34.094 29.2974 33.9368 29.2024 33.8208 29.1311C33.7064 29.0607 33.629 29.0114 33.6043 28.9922Z" fill="#FF3E54" stroke="#FF3E54" stroke-width="0.1"/>
</svg>
