<svg width="33" height="31" viewBox="0 0 33 31" fill="none" xmlns="http://www.w3.org/2000/svg">
<path d="M19.6406 11.4141C19.0547 10.9453 18.1758 11.0625 17.6484 11.6484C17.1797 12.2344 17.2383 13.1133 17.8828 13.6406C18.5273 14.168 18.9375 14.9297 18.9375 15.75C18.9375 16.6289 18.5273 17.3906 17.8828 17.918C17.2383 18.4453 17.1797 19.3242 17.6484 19.9102C17.9414 20.2617 18.3516 20.4375 18.7617 20.4375C19.0547 20.4375 19.4062 20.3203 19.6406 20.1445C20.9883 19.0312 21.75 17.4492 21.75 15.75C21.75 14.1094 20.9883 12.5273 19.6406 11.4141ZM23.2148 7.07812C22.5703 6.55078 21.6914 6.66797 21.2227 7.25391C20.6953 7.83984 20.8125 8.71875 21.3984 9.24609C23.3906 10.8867 24.5039 13.2305 24.5039 15.75C24.5039 18.2109 23.3906 20.6133 21.3984 22.2539C20.8125 22.7227 20.6953 23.6016 21.2227 24.1875C21.5156 24.5391 21.8672 24.7148 22.2773 24.7148C22.6289 24.7148 22.9219 24.5977 23.2148 24.4219C25.8516 22.3125 27.375 19.1484 27.375 15.75C27.375 12.3516 25.8516 9.24609 23.2148 7.07812ZM26.7891 2.74219C26.2031 2.21484 25.3242 2.33203 24.7969 2.91797C24.3281 3.50391 24.3867 4.38281 24.9727 4.91016C28.2539 7.60547 30.1875 11.5312 30.1875 15.75C30.1875 19.9102 28.2539 23.8945 24.9727 26.5898C24.3867 27.1172 24.3281 27.9961 24.7969 28.582C25.0898 28.9336 25.5 29.1094 25.9102 29.1094C26.2031 29.1094 26.4961 28.9922 26.7891 28.7578C30.7148 25.5938 33 20.8477 33 15.75C33 10.5938 30.7148 5.96484 26.7891 2.74219ZM11.8477 11.0039C12.4336 11.0625 13.0781 10.7109 13.3125 10.125L15.2461 5.20312C15.5391 4.55859 15.2461 3.79688 14.7188 3.44531L10.7344 0.984375C10.207 0.632812 9.44531 0.75 8.97656 1.21875C0.949219 9.24609 0.949219 22.3125 8.97656 30.3398C9.44531 30.8086 10.207 30.9258 10.7344 30.5742L14.7188 28.1133C15.2461 27.7617 15.5391 27 15.2461 26.3555L13.3125 21.4336C13.0781 20.8477 12.4336 20.4961 11.8477 20.5547L8.74219 20.8477C7.57031 17.5664 7.57031 13.9922 8.74219 10.7109L11.8477 11.0039Z" fill="#FF3E54"/>
</svg>
