<svg width="141" height="34" viewBox="0 0 141 34" fill="none" xmlns="http://www.w3.org/2000/svg">
<path d="M42.6161 23.3166H52.569V20.3188H46.1536V9.02686H42.6161V23.3166Z" fill="white"/>
<path d="M58.4657 21.3181C57.0468 21.3181 56.3073 20.079 56.3073 18.2203C56.3073 16.3616 57.0468 15.1025 58.4657 15.1025C59.8847 15.1025 60.6442 16.3616 60.6442 18.2203C60.6442 20.079 59.8847 21.3181 58.4657 21.3181ZM58.4857 23.6364C61.7834 23.6364 63.9418 21.2981 63.9418 18.2203C63.9418 15.1425 61.7834 12.8042 58.4857 12.8042C55.2081 12.8042 53.0096 15.1425 53.0096 18.2203C53.0096 21.2981 55.2081 23.6364 58.4857 23.6364Z" fill="white"/>
<path d="M69.6498 26.8541C71.1687 26.8541 72.5078 26.5143 73.4071 25.7149C74.2265 24.9754 74.7661 23.8562 74.7661 22.3173V13.0839H71.6484V14.1831H71.6084C71.0088 13.3238 70.0895 12.7841 68.7305 12.7841C66.1923 12.7841 64.4335 14.9026 64.4335 17.9005C64.4335 21.0382 66.572 22.757 68.8704 22.757C70.1095 22.757 70.8889 22.2574 71.4885 21.5779H71.5684V22.5971C71.5684 23.8362 70.9888 24.5557 69.6098 24.5557C68.5306 24.5557 67.991 24.0961 67.8111 23.5564H64.6534C64.9731 25.6949 66.8318 26.8541 69.6498 26.8541ZM69.6298 20.3387C68.4107 20.3387 67.6113 19.3395 67.6113 17.8006C67.6113 16.2417 68.4107 15.2424 69.6298 15.2424C70.9888 15.2424 71.7083 16.4016 71.7083 17.7806C71.7083 19.2195 71.0488 20.3387 69.6298 20.3387Z" fill="white"/>
<path d="M81.1768 21.3181C79.7578 21.3181 79.0183 20.079 79.0183 18.2203C79.0183 16.3616 79.7578 15.1025 81.1768 15.1025C82.5958 15.1025 83.3552 16.3616 83.3552 18.2203C83.3552 20.079 82.5958 21.3181 81.1768 21.3181ZM81.1968 23.6364C84.4944 23.6364 86.6529 21.2981 86.6529 18.2203C86.6529 15.1425 84.4944 12.8042 81.1968 12.8042C77.9191 12.8042 75.7207 15.1425 75.7207 18.2203C75.7207 21.2981 77.9191 23.6364 81.1968 23.6364Z" fill="white"/>
<path d="M87.6039 23.3166H90.8615V13.084H87.6039V23.3166ZM87.6039 11.665H90.8615V9.02686H87.6039V11.665Z" fill="white"/>
<path d="M92.2755 26.6942H95.5332V22.2574H95.5732C96.2127 23.1168 97.152 23.6364 98.4711 23.6364C101.149 23.6364 102.928 21.5179 102.928 18.2003C102.928 15.1225 101.269 12.7841 98.551 12.7841C97.152 12.7841 96.1527 13.4037 95.4532 14.323H95.3933V13.0839H92.2755V26.6942ZM97.6317 21.1182C96.2327 21.1182 95.4333 19.979 95.4333 18.3202C95.4333 16.6614 96.1527 15.4023 97.5717 15.4023C98.9707 15.4023 99.6302 16.5614 99.6302 18.3202C99.6302 20.0589 98.8708 21.1182 97.6317 21.1182Z" fill="white"/>
<path d="M108.232 23.6364C110.91 23.6364 112.888 22.4772 112.888 20.2388C112.888 17.6207 110.77 17.161 108.971 16.8612C107.672 16.6214 106.513 16.5215 106.513 15.802C106.513 15.1624 107.132 14.8627 107.932 14.8627C108.831 14.8627 109.451 15.1425 109.571 16.0618H112.568C112.409 14.0432 110.85 12.7841 107.952 12.7841C105.534 12.7841 103.535 13.9033 103.535 16.0618C103.535 18.4601 105.434 18.9397 107.212 19.2395C108.571 19.4794 109.81 19.5793 109.81 20.4986C109.81 21.1582 109.191 21.5179 108.212 21.5179C107.132 21.5179 106.453 21.0183 106.333 19.999H103.255C103.355 22.2574 105.234 23.6364 108.232 23.6364Z" fill="white"/>
<path d="M117.313 23.6164C118.732 23.6164 119.632 23.0568 120.371 22.0575H120.431V23.3166H123.549V13.084H120.291V18.7999C120.291 20.019 119.612 20.8584 118.493 20.8584C117.453 20.8584 116.954 20.2388 116.954 19.1196V13.084H113.716V19.7991C113.716 22.0775 114.955 23.6164 117.313 23.6164Z" fill="white"/>
<path d="M124.965 23.3166H128.223V17.5807C128.223 16.3616 128.823 15.5022 129.842 15.5022C130.821 15.5022 131.281 16.1417 131.281 17.241V23.3166H134.539V17.5807C134.539 16.3616 135.118 15.5022 136.157 15.5022C137.137 15.5022 137.596 16.1417 137.596 17.241V23.3166H140.854V16.6614C140.854 14.363 139.695 12.7841 137.377 12.7841C136.058 12.7841 134.958 13.3437 134.159 14.5829H134.119C133.599 13.4836 132.58 12.7841 131.241 12.7841C129.762 12.7841 128.783 13.4836 128.143 14.5429H128.083V13.0839H124.965V23.3166Z" fill="white"/>
<path fill-rule="evenodd" clip-rule="evenodd" d="M16.6548 33.3095C25.8529 33.3095 33.3095 25.8529 33.3095 16.6547C33.3095 7.45659 25.8529 0 16.6548 0C7.45657 0 0 7.45659 0 16.6547C0 25.8529 7.45657 33.3095 16.6548 33.3095ZM21.8505 7.75848C22.1034 6.86013 21.2316 6.32891 20.4354 6.89615L9.32092 14.814C8.45746 15.4292 8.59328 16.6547 9.52494 16.6547H12.4517V16.6321H18.1558L13.508 18.272L11.4591 25.551C11.2062 26.4494 12.0779 26.9806 12.8741 26.4133L23.9886 18.4955C24.8521 17.8803 24.7161 16.6547 23.7846 16.6547H19.3462L21.8505 7.75848Z" fill="white"/>
</svg>
