<svg width="50" height="50" viewBox="0 0 50 50" fill="none" xmlns="http://www.w3.org/2000/svg">
<path d="M0.644531 0.185547C0.205078 0.478516 0 0.869141 0 1.40625C0 1.93359 2.1875 10.7031 2.57813 11.7383C3.36914 13.8477 3.67188 14.2285 8.80859 19.3848L13.3789 23.9746L7.02149 30.3223C-0.390625 37.7344 0.0488281 37.1875 0.0488281 39.0625C0.0488281 40.127 0.0683594 40.2148 0.371094 40.8691C0.673828 41.5039 0.976563 41.8359 4.57031 45.4297C8.16406 49.0234 8.49609 49.3262 9.13086 49.6289C9.78516 49.9316 9.87305 49.9512 10.9375 49.9512C12.793 49.9512 12.1484 50.459 19.5801 43.0566L26.0254 36.6211L31.7871 42.3926C34.9609 45.5664 37.8223 48.3594 38.1543 48.5938C39.4629 49.541 40.9082 50 42.5781 50C43.8477 50 44.7559 49.7949 45.8496 49.2676C47.4219 48.5059 48.5742 47.3438 49.3262 45.752C49.8731 44.5801 50.0391 43.6816 49.9707 42.1973C49.9024 40.5273 49.541 39.4824 48.584 38.1348C48.3496 37.8125 45.5664 34.9609 42.3926 31.7871L36.6211 26.0254L43.0566 19.5801C50.459 12.1484 49.9512 12.793 49.9512 10.9375C49.9512 9.87305 49.9316 9.78516 49.6289 9.13086C49.3262 8.49609 49.0234 8.16406 45.4297 4.57031C41.8359 0.976562 41.5039 0.673828 40.8691 0.371094C40.2148 0.0683594 40.127 0.0488281 39.0625 0.0488281C37.1875 0.0488281 37.7344 -0.390625 30.3223 7.02148L23.9746 13.3789L19.3848 8.80859C14.2188 3.67188 13.8477 3.36914 11.7285 2.56836C10.6836 2.17773 1.94336 0 1.40625 0C1.10352 0 0.830078 0.0683594 0.644531 0.185547ZM43.2324 6.76758L46.9727 10.498V10.9277C46.9727 11.3281 46.9238 11.3965 46.1914 12.1484L45.4199 12.9395L43.1445 10.6738C41.8945 9.43359 40.7324 8.34961 40.5566 8.26172C39.8438 7.91016 38.8867 8.22266 38.5742 8.90625C38.1152 9.92188 38.252 10.166 40.9473 12.8711L43.2129 15.1367L42.1387 16.2109L41.0645 17.2852L39.8438 16.0742C39.1699 15.4102 38.5254 14.8145 38.4082 14.7559C38.1055 14.5996 37.3438 14.6191 37.0117 14.7949C36.4258 15.0977 36.1426 15.752 36.2793 16.4746C36.3379 16.7773 36.582 17.0801 37.627 18.1445L38.9063 19.4336L37.8125 20.5371L36.7188 21.6309L34.4043 19.3164C33.125 18.0469 31.9824 16.9629 31.8652 16.9043C31.7481 16.8457 31.4746 16.7969 31.25 16.7969C30.2051 16.7969 29.5215 17.6758 29.7949 18.6816C29.8828 19.0332 30.2441 19.4336 32.2363 21.4355L34.5703 23.7793L33.4961 24.8535L32.4219 25.918L31.2207 24.7266C29.8828 23.4082 29.5215 23.1836 28.8184 23.291C28.252 23.3789 27.6856 23.9062 27.5879 24.4531C27.4512 25.1758 27.6465 25.5273 28.9844 26.8848L30.2148 28.125L29.1699 29.1797L28.125 30.2246L25.8594 27.959C24.6094 26.7188 23.4473 25.6348 23.2715 25.5469C22.5586 25.1953 21.6016 25.5078 21.2891 26.1914C20.8301 27.207 20.9668 27.4512 23.6621 30.1562L25.9277 32.4219L24.8535 33.4961L23.7793 34.5703L22.5586 33.3594C21.8848 32.6953 21.2402 32.0996 21.123 32.041C20.8203 31.8848 20.0586 31.9043 19.7266 32.0801C19.1406 32.3828 18.8574 33.0371 18.9941 33.7695C19.0527 34.0625 19.2969 34.3652 20.3418 35.4297L21.6211 36.7188L20.5273 37.8223L19.4336 38.916L17.1191 36.6016C15.8398 35.332 14.6973 34.248 14.5801 34.1895C14.4629 34.1309 14.1895 34.082 13.9648 34.082C12.9199 34.082 12.2363 34.9609 12.5098 35.9668C12.5977 36.3184 12.959 36.7188 14.9512 38.7207L17.2852 41.0645L16.2109 42.1387L15.1367 43.2031L13.9355 42.0117C12.5977 40.6934 12.2363 40.4688 11.5332 40.5762C10.9668 40.6641 10.4004 41.1914 10.3027 41.7383C10.166 42.4609 10.3613 42.8125 11.709 44.1699L12.9395 45.4199L12.1484 46.1914C11.3965 46.9238 11.3281 46.9727 10.9277 46.9727H10.498L6.76758 43.2324L3.02734 39.502V39.0625V38.623L20.8301 20.8301L38.6231 3.02734H39.0625H39.502L43.2324 6.76758ZM7.07031 4.45312C11.4844 5.56641 12.0996 5.84961 13.9941 7.70508L14.6484 8.34961L11.5039 11.4941L8.34961 14.6484L7.83203 14.1309C6.91406 13.2422 6.13281 12.1875 5.70313 11.2793C5.38086 10.5859 5.10742 9.6875 4.45313 7.06055C3.99414 5.22461 3.61328 3.70117 3.61328 3.67188C3.61328 3.58398 3.59375 3.57422 7.07031 4.45312ZM19.3359 13.0371L21.8262 15.5273L18.6719 18.6816L15.5273 21.8262L13.0176 19.3066L10.498 16.7969L13.623 13.6719C15.3418 11.9531 16.7676 10.5469 16.7969 10.5469C16.8262 10.5469 17.9688 11.6699 19.3359 13.0371ZM37.5781 31.2793L40.625 34.3262L37.4707 37.4805L34.3262 40.625L31.25 37.5488L28.1738 34.4727L31.2988 31.3477C33.0176 29.6289 34.4434 28.2227 34.4727 28.2227C34.502 28.2227 35.8984 29.5996 37.5781 31.2793ZM44.502 38.2129C45.9473 39.6875 46.2109 40 46.543 40.6738C46.9238 41.4355 46.9238 41.4551 46.9238 42.5781C46.9238 43.6914 46.9141 43.7305 46.5625 44.4434C46.0938 45.4004 45.4004 46.0938 44.4434 46.5625C43.7305 46.9141 43.6914 46.9238 42.5781 46.9238C41.4551 46.9238 41.4356 46.9238 40.6738 46.543C40 46.2109 39.6875 45.957 38.1836 44.4727L36.4746 42.7832L39.5996 39.6484C41.3184 37.9297 42.7539 36.5234 42.7832 36.5234C42.8125 36.5234 43.5938 37.2852 44.502 38.2129Z" fill="#FF3E54"/>
</svg>
