<svg width="60" height="58" viewBox="0 0 60 58" fill="none" xmlns="http://www.w3.org/2000/svg">
<path d="M3.88076 1.04655C2.57964 1.51542 1.48952 2.50005 0.797931 3.81289C-0.0577581 5.43049 0.00085076 4.09421 0.00085076 23.7282C0.00085076 43.3621 -0.0577581 42.0259 0.797931 43.6435C1.50124 44.9797 2.60308 45.9527 3.96281 46.4215C4.5489 46.6208 4.99432 46.6442 8.8039 46.6442H13.0003L13.3051 46.3746C13.5395 46.1871 13.6333 45.9644 13.6802 45.5776C13.7388 45.097 13.7036 44.9915 13.3871 44.6398L13.0355 44.2413L8.88595 44.1827C4.83022 44.1241 4.73645 44.1241 4.31446 43.8545C3.71665 43.4911 3.18917 42.8464 2.8258 42.0727L2.52103 41.428L2.48587 30.14L2.46242 18.8636H27.8987H53.3349V24.7831V30.7026H52.8074C52.1745 30.7026 51.6587 30.9019 51.1429 31.3356L50.7678 31.6521L49.7363 31.2418L48.7048 30.8316L48.6345 30.2572C48.529 29.4718 48.2359 28.8975 47.685 28.4286C47.0169 27.8542 46.4659 27.737 44.5905 27.7956C43.0549 27.8308 42.926 27.8542 42.3985 28.159C41.6717 28.5927 41.1443 29.4718 41.1443 30.2689C41.1443 30.7612 41.1091 30.8433 40.8278 30.9605C40.6402 31.0308 40.1714 31.2301 39.7728 31.4177C39.0695 31.7341 39.0461 31.7341 38.8468 31.5114C38.2138 30.8081 36.7017 30.5034 35.7757 30.8785C35.2599 31.1012 33.2438 33.047 32.939 33.6331C32.4467 34.606 32.5639 35.7313 33.2555 36.6456L33.6541 37.173L33.2438 38.1225L32.8335 39.0837L32.2592 39.154C31.4855 39.2595 30.9112 39.5408 30.4306 40.08C29.8914 40.6779 29.7741 41.1584 29.7741 42.7995V44.1827H26.2576C22.366 44.1827 22.2136 44.2061 21.8502 44.8977C21.6275 45.3314 21.7096 45.9058 22.0261 46.316L22.2488 46.5856L27.547 46.6442L32.8335 46.7028L33.2438 47.7226L33.6658 48.7542L33.3376 49.1293C32.8687 49.6919 32.7046 50.1842 32.7046 50.9813C32.7046 51.9659 32.939 52.3527 34.3691 53.7476C35.4826 54.8378 35.635 54.955 36.2328 55.0839C37.1003 55.2715 37.8973 55.0956 38.6241 54.5447C39.1398 54.1462 39.1516 54.1344 39.5267 54.3337C39.7377 54.4392 40.1714 54.615 40.4878 54.7323L41.0857 54.9315L41.156 55.5879C41.2498 56.4202 41.7069 57.2173 42.3399 57.6393C42.8088 57.944 42.8908 57.9557 44.696 57.9909C46.8645 58.0378 47.3334 57.9206 47.9546 57.229C48.4352 56.6781 48.6462 56.1506 48.6462 55.5293V55.0253L49.7129 54.5682L50.7796 54.1227L51.0843 54.4158C51.6587 54.9432 52.1627 55.1308 52.995 55.1308C53.6045 55.1308 53.8624 55.0722 54.2844 54.826C54.8939 54.4627 56.617 52.7278 56.8866 52.2004C57.3672 51.2626 57.2265 50.0318 56.5584 49.2465L56.1599 48.7893L56.5936 47.7109L57.0155 46.6442H57.5547C58.5863 46.6325 59.6178 45.8823 59.8991 44.9211C59.9812 44.6398 60.0163 43.7724 59.9929 42.6471C59.9577 40.842 59.9577 40.8185 59.6178 40.3262C59.1723 39.6932 58.4339 39.2595 57.6368 39.1775L57.0155 39.1189L56.5936 38.1225L56.1716 37.1262L56.5701 36.6104C57.0507 35.9774 57.25 35.2858 57.1679 34.5474C57.0859 33.8675 56.8983 33.4924 56.2771 32.7891L55.7965 32.2499V19.3677C55.7965 8.46643 55.7613 6.36824 55.6207 5.67665C55.2104 3.73083 54.0148 2.10151 52.4206 1.31615L51.5298 0.870724L28.0276 0.847282C4.93572 0.823837 4.50201 0.823837 3.88076 1.04655ZM51.4243 3.62534C52.1276 4.02388 52.4909 4.45758 52.9481 5.44221L53.2763 6.14552L53.3115 11.2679L53.3466 16.4021H27.8987H2.4507L2.48587 11.2093L2.52103 6.02831L2.86096 5.30155C3.22434 4.51619 3.96281 3.71912 4.60751 3.44951C4.92399 3.30885 8.60463 3.28541 27.8987 3.27369H50.8147L51.4243 3.62534ZM46.1846 31.2887C46.2667 32.7422 46.2667 32.7422 48.0015 33.2814C48.4586 33.4221 49.2088 33.7503 49.6777 33.9964C50.9437 34.6763 51.3305 34.6411 52.2682 33.7855L52.995 33.129L53.8741 33.9964L54.7415 34.8521L54.1672 35.4499C53.1474 36.4932 53.1239 36.7393 53.8507 38.1811C54.132 38.7555 54.4836 39.6112 54.6243 40.0918C55.0111 41.3577 55.2104 41.5335 56.4763 41.6039L57.4961 41.6625L57.5313 42.9167L57.5665 44.1827H56.6522C55.2338 44.1827 55.0463 44.3585 54.554 45.9878C54.4368 46.3746 54.1203 47.1248 53.8389 47.664C53.1239 49.0472 53.1474 49.2816 54.0499 50.2311L54.7767 50.9696L53.9796 51.8018C53.5342 52.2472 53.1005 52.6223 53.0067 52.6223C52.9129 52.6223 52.5261 52.3293 52.151 51.9776C51.307 51.1806 50.9554 51.1337 49.877 51.7315C49.4902 51.9542 48.611 52.3293 47.9429 52.552C46.3253 53.1029 46.255 53.185 46.1963 54.5095L46.1612 55.5645L44.907 55.5293L43.6644 55.4942L43.6058 54.4744C43.5355 53.2084 43.3597 53.0092 42.1054 52.6341C41.6366 52.4934 40.7926 52.1417 40.2417 51.8604C38.7999 51.1102 38.5186 51.1337 37.5808 52.0363L36.8541 52.7278L36.0101 51.8839C35.5413 51.415 35.1662 50.9813 35.1662 50.9227C35.1662 50.8641 35.4592 50.5124 35.8226 50.149C36.6783 49.2934 36.7017 48.9534 36.0101 47.6992C35.7523 47.2186 35.4006 46.3629 35.2248 45.8003C34.7911 44.4171 34.6152 44.2647 33.3141 44.1827L32.2943 44.1241V42.8933V41.6625L33.3024 41.6273C34.5918 41.5804 34.8028 41.4163 35.1662 40.1855C35.3068 39.7049 35.6585 38.8493 35.9398 38.2866C36.6548 36.8448 36.6431 36.5518 35.8109 35.6492C35.4592 35.2624 35.1662 34.899 35.1662 34.8404C35.1662 34.7818 35.5295 34.3715 35.975 33.9378L36.7955 33.129L37.4988 33.7855C38.5069 34.7115 38.7061 34.7349 40.1596 34.0082C40.7926 33.68 41.6952 33.3049 42.1523 33.1759C43.3245 32.836 43.5355 32.5781 43.5824 31.4294C43.6058 30.9371 43.641 30.4565 43.6644 30.3744C43.7113 30.2689 44.0278 30.2338 44.9187 30.2572L46.126 30.2924L46.1846 31.2887Z" fill="#FF3E54"/>
<path d="M9.48379 6.12205C8.21784 6.66126 7.42076 7.57555 7.08083 8.88839C6.62368 10.717 7.50281 12.6394 9.20247 13.4833C9.70651 13.7295 9.95266 13.7646 10.9607 13.7646C11.9454 13.7646 12.2267 13.7178 12.6721 13.495C13.5395 13.0731 14.1373 12.4753 14.5593 11.6196C14.911 10.9163 14.9461 10.7404 14.9461 9.83786C14.9344 9.06422 14.8758 8.71257 14.6765 8.26714C14.278 7.38801 13.6919 6.75503 12.8714 6.32132C12.2267 5.96967 12.004 5.92278 11.1366 5.88762C10.2926 5.85245 10.0347 5.88762 9.48379 6.12205ZM11.7344 8.58363C11.9571 8.72429 12.2267 9.0525 12.3556 9.29865C12.6252 9.8613 12.4846 10.4357 11.9571 10.9514C11.6406 11.2562 11.4999 11.3031 10.9607 11.3031C10.4215 11.3031 10.2809 11.2562 9.97611 10.9631C9.5424 10.5412 9.35485 9.96679 9.49551 9.47448C9.62445 9.02905 9.80028 8.80634 10.2574 8.52502C10.7263 8.24369 11.2538 8.25542 11.7344 8.58363Z" fill="#FF3E54"/>
<path d="M19.9279 6.05176C18.873 6.41514 18.1579 7.07156 17.5718 8.19685C17.3374 8.64227 17.3022 8.90015 17.2905 9.83789C17.2905 11.1859 17.5367 11.7954 18.4627 12.7215C19.3067 13.5654 20.1272 13.8585 21.4518 13.7999C22.6239 13.7412 23.339 13.4365 24.1243 12.6394C26.5976 10.1309 24.769 5.82905 21.2408 5.85249C20.8071 5.86421 20.221 5.94627 19.9279 6.05176ZM21.9323 8.48989C22.6943 8.88843 22.999 10.0723 22.495 10.7053C21.7565 11.643 20.3734 11.5258 19.881 10.4943C19.6466 10.002 19.6466 9.68551 19.8576 9.27525C20.303 8.41956 21.1587 8.09135 21.9323 8.48989Z" fill="#FF3E54"/>
<path d="M33.9119 6.01656C32.7983 6.36821 31.8254 7.29423 31.4034 8.41952C31.0752 9.31037 31.1221 10.8108 31.5206 11.5961C31.884 12.3111 32.6342 13.0731 33.3492 13.4482L33.9353 13.7646L40.1479 13.7998C47.0637 13.835 46.9934 13.8467 48.0835 13.0496C49.2088 12.2174 49.8652 10.588 49.6073 9.22832C49.3495 7.84515 48.5641 6.79019 47.3568 6.21583L46.7121 5.91106L40.5581 5.88762C35.7405 5.8759 34.2987 5.89934 33.9119 6.01656ZM46.3018 8.48985C47.4271 9.06422 47.4271 10.6115 46.3018 11.1859C46.0205 11.3382 45.0827 11.3617 40.3823 11.3617C34.2284 11.3617 34.3339 11.3734 33.8767 10.6232C33.4196 9.87302 33.7243 8.81806 34.498 8.48985C35.0723 8.23197 45.8095 8.23197 46.3018 8.48985Z" fill="#FF3E54"/>
<path d="M43.3714 35.8016C42.082 36.0947 40.7457 36.8331 39.7963 37.7943C36.7486 40.8302 36.9713 45.7651 40.2886 48.5315C41.0271 49.1527 42.5392 49.8795 43.4652 50.0553C44.4616 50.2428 46.2784 50.1373 47.2513 49.8208C49.2675 49.1879 51.0492 47.4179 51.7759 45.3549C52.1745 44.1944 52.28 42.3658 51.9986 41.2522C51.3774 38.7907 49.5254 36.7745 47.181 36.0243C45.9971 35.6492 44.4498 35.5555 43.3714 35.8016ZM45.7275 38.2046C47.2396 38.4859 48.5056 39.4588 49.1971 40.8771C49.6191 41.7211 49.6426 41.8266 49.6426 42.8816C49.6309 44.464 49.3495 45.1439 48.2477 46.2457C47.1458 47.3476 46.466 47.6289 44.8953 47.6406C43.8872 47.6406 43.7114 47.6054 42.9963 47.2655C40.9919 46.316 39.8315 44.2178 40.1948 42.2134C40.5699 40.209 41.9414 38.7438 43.8989 38.2515C44.6491 38.0639 44.9539 38.0639 45.7275 38.2046Z" fill="#FF3E54"/>
<path d="M18.2282 25.6974C17.9469 25.9319 17.7945 26.4593 16.7044 31.0543C16.0246 33.8558 15.4736 36.3291 15.4736 36.5401C15.4736 37.7005 17.396 38.0639 17.818 36.9855C17.8766 36.8331 18.451 34.477 19.1074 31.7458C20.3851 26.4124 20.4085 26.1663 19.8693 25.6857C19.4473 25.334 18.6502 25.334 18.2282 25.6974Z" fill="#FF3E54"/>
<path d="M10.8317 26.3538C10.5035 26.4945 7.33862 29.9524 6.90491 30.644C6.58843 31.1597 6.60015 32.0975 6.94008 32.5312C7.61994 33.3986 10.3628 36.4111 10.6442 36.5869C11.1599 36.9269 11.6874 36.8565 12.1445 36.3994C12.5783 35.9657 12.6603 35.4851 12.4024 35.0045C12.3321 34.8638 11.6405 34.055 10.8786 33.1993C10.1167 32.3554 9.49542 31.6052 9.49542 31.5466C9.49542 31.488 10.105 30.7612 10.8552 29.929C12.3907 28.2059 12.6134 27.8542 12.4962 27.2798C12.3673 26.5531 11.4998 26.0725 10.8317 26.3538Z" fill="#FF3E54"/>
<path d="M23.9601 26.3538C23.5381 26.5414 23.2099 27.0572 23.2099 27.5495C23.2099 28.0301 23.1513 27.9597 25.5895 30.6909C25.9528 31.1129 26.2576 31.4997 26.2576 31.5466C26.2576 31.5935 25.6363 32.3319 24.8744 33.1876C24.1008 34.0433 23.4209 34.8639 23.3506 35.0045C22.788 36.0477 24.0187 37.2316 25.0385 36.6456C25.3316 36.4815 28.5433 32.9063 28.8481 32.4023C29.106 32.0037 29.1411 31.1246 28.9184 30.7495C28.7661 30.4682 25.7653 27.0689 25.2847 26.6234C24.9682 26.3304 24.3352 26.2015 23.9601 26.3538Z" fill="#FF3E54"/>
<path d="M17.185 44.3585C16.6927 44.6164 16.5403 44.886 16.5286 45.4486C16.5286 46.1754 16.9974 46.6442 17.7476 46.6442C18.4744 46.6442 18.8729 46.2926 18.955 45.5775C19.0136 45.1087 18.9784 44.9915 18.6854 44.6632C18.2751 44.2061 17.6773 44.0889 17.185 44.3585Z" fill="#FF3E54"/>
</svg>
