<svg width="30" height="23" viewBox="0 0 30 23" fill="none" xmlns="http://www.w3.org/2000/svg">
<path d="M27.1875 0.5C28.7109 0.5 30 1.78906 30 3.3125C30 4.25 29.5312 5.07031 28.8281 5.59766L16.1133 15.1484C15.4102 15.6758 14.5312 15.6758 13.8281 15.1484L1.11328 5.59766C0.410156 5.07031 0 4.25 0 3.3125C0 1.78906 1.23047 0.5 2.8125 0.5H27.1875ZM12.7148 16.6719C14.0625 17.668 15.8789 17.668 17.2266 16.6719L30 7.0625V19.25C30 21.3594 28.3008 23 26.25 23H3.75C1.64062 23 0 21.3594 0 19.25V7.0625L12.7148 16.6719Z" fill="#FF3E54"/>
</svg>
