<svg width="21" height="22" viewBox="0 0 21 22" fill="none" xmlns="http://www.w3.org/2000/svg">
<path d="M4.6875 22H0.328125V7.98438H4.6875V22ZM2.48438 6.10938C1.125 6.10938 0 4.9375 0 3.53125C0 1.60938 2.0625 0.390625 3.75 1.375C4.54688 1.79688 5.01562 2.64062 5.01562 3.53125C5.01562 4.9375 3.89062 6.10938 2.48438 6.10938ZM20.9531 22H16.6406V15.2031C16.6406 13.5625 16.5938 11.5 14.3438 11.5C12.0938 11.5 11.7656 13.2344 11.7656 15.0625V22H7.40625V7.98438H11.5781V9.90625H11.625C12.2344 8.82812 13.6406 7.65625 15.75 7.65625C20.1562 7.65625 21 10.5625 21 14.3125V22H20.9531Z" fill="white"/>
</svg>
