<svg width="170" height="40" viewBox="0 0 170 40" fill="none" xmlns="http://www.w3.org/2000/svg">
<path d="M51.176 27.9998H63.128V24.3998H55.424V10.8398H51.176V27.9998Z" fill="#0E1F51"/>
<path d="M70.2091 25.6C68.5051 25.6 67.6171 24.112 67.6171 21.88C67.6171 19.648 68.5051 18.136 70.2091 18.136C71.9131 18.136 72.8251 19.648 72.8251 21.88C72.8251 24.112 71.9131 25.6 70.2091 25.6ZM70.2331 28.384C74.1931 28.384 76.7851 25.576 76.7851 21.88C76.7851 18.184 74.1931 15.376 70.2331 15.376C66.2971 15.376 63.6571 18.184 63.6571 21.88C63.6571 25.576 66.2971 28.384 70.2331 28.384Z" fill="#0E1F51"/>
<path d="M83.6396 32.2478C85.4636 32.2478 87.0716 31.8398 88.1516 30.8798C89.1356 29.9918 89.7836 28.6478 89.7836 26.7998V15.7118H86.0396V17.0318H85.9916C85.2716 15.9998 84.1676 15.3518 82.5356 15.3518C79.4876 15.3518 77.3756 17.8958 77.3756 21.4958C77.3756 25.2638 79.9436 27.3278 82.7036 27.3278C84.1916 27.3278 85.1276 26.7278 85.8476 25.9118H85.9436V27.1358C85.9436 28.6238 85.2476 29.4878 83.5916 29.4878C82.2956 29.4878 81.6476 28.9358 81.4316 28.2878H77.6396C78.0236 30.8558 80.2556 32.2478 83.6396 32.2478ZM83.6156 24.4238C82.1516 24.4238 81.1916 23.2238 81.1916 21.3758C81.1916 19.5038 82.1516 18.3038 83.6156 18.3038C85.2476 18.3038 86.1116 19.6958 86.1116 21.3518C86.1116 23.0798 85.3196 24.4238 83.6156 24.4238Z" fill="#0E1F51"/>
<path d="M97.4819 25.6C95.7779 25.6 94.8899 24.112 94.8899 21.88C94.8899 19.648 95.7779 18.136 97.4819 18.136C99.1859 18.136 100.098 19.648 100.098 21.88C100.098 24.112 99.1859 25.6 97.4819 25.6ZM97.5059 28.384C101.466 28.384 104.058 25.576 104.058 21.88C104.058 18.184 101.466 15.376 97.5059 15.376C93.5699 15.376 90.9299 18.184 90.9299 21.88C90.9299 25.576 93.5699 28.384 97.5059 28.384Z" fill="#0E1F51"/>
<path d="M105.2 27.9998H109.112V15.7118H105.2V27.9998ZM105.2 14.0078H109.112V10.8398H105.2V14.0078Z" fill="#0E1F51"/>
<path d="M110.81 32.0558H114.722V26.7278H114.77C115.538 27.7598 116.666 28.3838 118.25 28.3838C121.466 28.3838 123.602 25.8398 123.602 21.8558C123.602 18.1598 121.61 15.3518 118.346 15.3518C116.666 15.3518 115.466 16.0958 114.626 17.1998H114.554V15.7118H110.81V32.0558ZM117.242 25.3598C115.562 25.3598 114.602 23.9918 114.602 21.9998C114.602 20.0078 115.466 18.4958 117.17 18.4958C118.85 18.4958 119.642 19.8878 119.642 21.9998C119.642 24.0878 118.73 25.3598 117.242 25.3598Z" fill="#0E1F51"/>
<path d="M129.971 28.3838C133.187 28.3838 135.563 26.9918 135.563 24.3038C135.563 21.1598 133.019 20.6078 130.859 20.2478C129.299 19.9598 127.907 19.8398 127.907 18.9758C127.907 18.2078 128.651 17.8478 129.611 17.8478C130.691 17.8478 131.435 18.1838 131.579 19.2878H135.179C134.987 16.8638 133.115 15.3518 129.635 15.3518C126.731 15.3518 124.331 16.6958 124.331 19.2878C124.331 22.1678 126.611 22.7438 128.747 23.1038C130.379 23.3918 131.867 23.5118 131.867 24.6158C131.867 25.4078 131.123 25.8398 129.947 25.8398C128.651 25.8398 127.835 25.2398 127.691 24.0158H123.995C124.115 26.7278 126.371 28.3838 129.971 28.3838Z" fill="#0E1F51"/>
<path d="M140.877 28.3599C142.581 28.3599 143.661 27.6879 144.549 26.4879H144.621V27.9999H148.365V15.7119H144.453V22.5759C144.453 24.0399 143.637 25.0479 142.293 25.0479C141.045 25.0479 140.445 24.3039 140.445 22.9599V15.7119H136.557V23.7759C136.557 26.5119 138.045 28.3599 140.877 28.3599Z" fill="#0E1F51"/>
<path d="M150.066 27.9998H153.978V21.1118C153.978 19.6478 154.698 18.6158 155.922 18.6158C157.098 18.6158 157.65 19.3838 157.65 20.7038V27.9998H161.562V21.1118C161.562 19.6478 162.258 18.6158 163.506 18.6158C164.682 18.6158 165.234 19.3838 165.234 20.7038V27.9998H169.146V20.0078C169.146 17.2478 167.754 15.3518 164.97 15.3518C163.386 15.3518 162.066 16.0238 161.106 17.5118H161.058C160.434 16.1918 159.21 15.3518 157.602 15.3518C155.826 15.3518 154.65 16.1918 153.882 17.4638H153.81V15.7118H150.066V27.9998Z" fill="#0E1F51"/>
<path fill-rule="evenodd" clip-rule="evenodd" d="M20 40C31.0457 40 40 31.0457 40 20C40 8.95431 31.0457 0 20 0C8.95429 0 0 8.95431 0 20C0 31.0457 8.95429 40 20 40ZM26.2393 9.31684C26.543 8.23805 25.4961 7.60013 24.54 8.2813L11.1931 17.7896C10.1562 18.5283 10.3193 20 11.4381 20H14.9527V19.9728H21.8025L16.2212 21.9421L13.7607 30.6832C13.457 31.762 14.5038 32.3999 15.46 31.7187L28.8069 22.2105C29.8438 21.4718 29.6806 20 28.5619 20H23.2321L26.2393 9.31684Z" fill="#FF3E54"/>
</svg>
