<svg width="60" height="53" viewBox="0 0 60 53" fill="none" xmlns="http://www.w3.org/2000/svg">
<path d="M5.625 26.5H15V19C15 14.8984 11.7188 11.5 7.5 11.5H6.5625C5.03906 11.5 3.75 10.3281 3.75 8.6875V3.0625C3.75 1.53906 5.03906 0.25 6.5625 0.25H7.5C17.9297 0.25 26.25 8.6875 26.25 19V47.125C26.25 50.2891 23.7891 52.75 20.625 52.75H5.625C2.57812 52.75 0 50.2891 0 47.125V32.125C0 29.0781 2.57812 26.5 5.625 26.5ZM39.375 26.5H48.75V19C48.75 14.8984 45.4688 11.5 41.25 11.5H40.3125C38.7891 11.5 37.5 10.3281 37.5 8.6875V3.0625C37.5 1.53906 38.7891 0.25 40.3125 0.25H41.25C51.6797 0.25 60 8.6875 60 19V47.125C60 50.2891 57.5391 52.75 54.375 52.75H39.375C36.3281 52.75 33.75 50.2891 33.75 47.125V32.125C33.75 29.0781 36.3281 26.5 39.375 26.5Z" fill="#FF3E54"/>
</svg>
