<svg width="40" height="38" viewBox="0 0 40 38" fill="none" xmlns="http://www.w3.org/2000/svg">
<path d="M32.6562 12.9062C32.1875 12.75 31.7969 12.5938 31.4062 12.5156C31.4062 12.2031 31.4844 11.8906 31.5625 11.5781C32.5 6.96875 31.875 3.21875 29.7656 1.96875C27.7344 0.796875 24.375 2.04688 20.9375 5.01562C20.625 5.25 20.3125 5.5625 20 5.875C19.7656 5.64062 19.5312 5.48438 19.375 5.25C15.7812 2.125 12.1875 0.796875 10.0781 2.04688C8.04688 3.21875 7.42188 6.73438 8.28125 11.1875C8.35938 11.5781 8.4375 12.0469 8.59375 12.4375C8.04688 12.5938 7.57812 12.75 7.10938 12.9062C2.96875 14.3906 0 16.6562 0 19C0 21.4219 3.125 23.9219 7.5 25.4062C7.8125 25.4844 8.20312 25.6406 8.51562 25.7188C8.4375 26.1875 8.35938 26.6562 8.20312 27.125C7.42188 31.4219 8.04688 34.8594 10.0781 36.0312C12.1875 37.2812 15.7812 36.0312 19.2188 32.9844C19.4531 32.75 19.7656 32.5156 20 32.2812C20.3906 32.5938 20.7031 32.9062 21.0938 33.2188C24.4531 36.1094 27.7344 37.2812 29.7656 36.1094C31.875 34.8594 32.5781 31.1875 31.7188 26.6562C31.6406 26.3438 31.5625 25.9531 31.4844 25.6406C31.7188 25.5625 31.9531 25.4844 32.1875 25.4062C36.7188 23.9219 40 21.5 40 19C40 16.6562 36.875 14.3125 32.6562 12.9062ZM22.0312 6.26562C25 3.6875 27.6562 2.75 28.9062 3.45312C30.2344 4.15625 30.7812 7.28125 29.9219 11.2656C29.8438 11.5781 29.8438 11.8125 29.7656 12.0469C27.9688 11.6562 26.25 11.4219 24.4531 11.2656C23.4375 9.78125 22.3438 8.375 21.1719 7.04688C21.4844 6.8125 21.7188 6.5 22.0312 6.26562ZM13.0469 23.0625C13.4375 23.7656 13.8281 24.3906 14.2969 25.0938C13.0469 24.9375 11.7969 24.7812 10.625 24.4688C11.0156 23.375 11.4062 22.2031 11.875 21.0312C12.2656 21.7344 12.6562 22.3594 13.0469 23.0625ZM10.625 13.6875C11.7969 13.375 12.9688 13.2188 14.2188 13.0625C13.8281 13.6875 13.4375 14.3906 13.0469 15.0156C12.6562 15.7188 12.2656 16.3438 11.875 17.0469C11.4062 15.875 11.0156 14.7812 10.625 13.6875ZM12.8125 19.0781C13.2812 17.9844 13.9062 16.8906 14.4531 15.875C15.0781 14.8594 15.7031 13.8438 16.4062 12.8281C17.5781 12.75 18.75 12.6719 20 12.6719C21.1719 12.6719 22.4219 12.75 23.5156 12.8281C24.2188 13.8438 24.8438 14.8594 25.4688 15.875C26.0156 16.8906 26.6406 17.9062 27.1094 19C26.6406 20.0938 26.0938 21.1875 25.4688 22.2031C24.8438 23.2188 24.2188 24.2344 23.5938 25.25C22.4219 25.3281 21.1719 25.4062 20 25.4062C18.75 25.4062 17.5781 25.3281 16.4062 25.25C15.7031 24.2344 15.0781 23.2188 14.4531 22.2031C13.9062 21.1875 13.3594 20.0938 12.8125 19.0781ZM26.875 23.0625C27.3438 22.3594 27.6562 21.6562 28.0469 20.9531C28.5156 22.125 28.9844 23.2188 29.375 24.3906C28.125 24.7031 26.9531 24.9375 25.7031 25.0156C26.0938 24.3906 26.4844 23.6875 26.875 23.0625ZM28.0469 17.0469C27.6562 16.3438 27.2656 15.7188 26.875 15.0156C26.4844 14.3906 26.0938 13.6875 25.7031 13.0625C26.9531 13.2188 28.2031 13.4531 29.2969 13.6875C28.9062 14.8594 28.5156 15.9531 28.0469 17.0469ZM20 8.29688C20.7812 9.15625 21.5625 10.0938 22.2656 11.1094C20.7812 11.0312 19.2188 11.0312 17.6562 11.1094C18.4375 10.0938 19.2188 9.15625 20 8.29688ZM10.9375 3.45312C12.2656 2.75 15.1562 3.84375 18.2031 6.5C18.4375 6.73438 18.5938 6.89062 18.8281 7.04688C17.5781 8.375 16.4844 9.78125 15.4688 11.2656C13.6719 11.4219 11.9531 11.6562 10.2344 12.0469C10.0781 11.6562 10 11.2656 9.92188 10.7969C9.21875 7.04688 9.6875 4.23438 10.9375 3.45312ZM8.98438 24.0781C8.67188 24 8.35938 23.9219 8.04688 23.7656C6.40625 23.2188 4.45312 22.4375 3.125 21.3438C2.34375 20.7969 1.79688 19.9375 1.64062 19C1.64062 17.5938 4.14062 15.7188 7.65625 14.4688C8.125 14.3125 8.59375 14.2344 9.0625 14.0781C9.53125 15.7969 10.2344 17.4375 10.9375 19.0781C10.1562 20.6406 9.53125 22.3594 8.98438 24.0781ZM18.125 31.7344C16.7969 32.9062 15.3125 33.8438 13.6719 34.4688C12.8125 34.9375 11.875 34.9375 10.9375 34.625C9.6875 33.8438 9.21875 31.1094 9.92188 27.4375C10 26.9688 10.0781 26.5 10.1562 26.1094C11.9531 26.5 13.6719 26.7344 15.4688 26.8906C16.4844 28.2969 17.6562 29.7031 18.8281 31.0312C18.5938 31.2656 18.3594 31.5 18.125 31.7344ZM20 29.8594C19.2188 29 18.4375 28.0625 17.6562 26.9688C18.4375 27.0469 19.2188 27.0469 20 27.0469C20.7812 27.0469 21.5625 27.0469 22.3438 26.9688C21.6406 27.9844 20.8594 28.9219 20 29.8594ZM30.2344 32.2031C30.1562 33.1406 29.6875 34 28.9844 34.625C27.7344 35.3281 25.0781 34.3906 22.1875 31.9688C21.875 31.6562 21.5625 31.3438 21.1719 31.0312C22.4219 29.7031 23.5156 28.375 24.5312 26.8906C26.3281 26.7344 28.0469 26.4219 29.8438 26.0312C29.9219 26.3438 30 26.6562 30.0781 26.9688C30.3906 28.6875 30.4688 30.4844 30.2344 32.2031ZM31.6406 23.7656C31.4062 23.8438 31.25 23.9219 31.0156 24C30.4688 22.2812 29.7656 20.6406 28.9844 19C29.7656 17.4375 30.3906 15.7969 30.9375 14.0781C31.3281 14.2344 31.7188 14.3125 32.1094 14.4688C35.7031 15.7188 38.2812 17.5938 38.2812 19C38.2812 20.4844 35.5469 22.5156 31.6406 23.7656ZM20 22.5938C21.9531 22.5938 23.5156 21.0312 23.5156 19C23.5156 17.0469 21.9531 15.4844 20 15.4844C17.9688 15.4844 16.4062 17.0469 16.4062 19C16.4062 21.0312 17.9688 22.5938 20 22.5938Z" fill="#FF3E54"/>
</svg>
