<svg width="50" height="50" viewBox="0 0 50 50" fill="none" xmlns="http://www.w3.org/2000/svg">
<path d="M3.27725 3.34282V6.62008H2.45794H1.63863V5.39111V4.16214H0.819313H0V6.21042V8.2587H3.41039H6.82078L7.60937 9.64129C8.03951 10.3992 8.39796 11.0751 8.39796 11.1365C8.39796 11.198 8.2341 11.5257 8.03951 11.8534C6.88223 13.7481 5.97075 16.5645 5.7864 18.7562C5.75568 19.1453 5.70447 19.7188 5.68399 20.0056L5.63278 20.5484H9.77031H13.9078L13.9693 20.3128C14 20.19 14.0307 19.9237 14.0307 19.7188C14.0307 19.0839 14.5018 17.4453 14.932 16.5952C15.6182 15.2331 16.7242 13.9427 17.8405 13.1951C18.0556 13.0619 18.2297 12.8878 18.2297 12.8161C18.2297 12.6932 14.594 5.71883 14.4506 5.56521C14.2458 5.36038 11.1734 7.77736 10.18 8.91415C9.91369 9.23164 9.65765 9.48767 9.62693 9.48767C9.59621 9.48767 9.25824 8.94488 8.87931 8.27919L8.19313 7.0707V4.7971V2.52351H7.37382H6.55451V4.57179V6.62008H5.73519H4.91588V3.34282V0.0655708H4.09657H3.27725V3.34282ZM15.0651 10.4708L16.0278 12.3348L15.3314 13.0312C13.9795 14.3831 13.0168 16.1241 12.556 18.0085L12.3409 18.9098H9.92393H7.50696L7.6401 18.0597C7.8142 17.0049 8.21362 15.6223 8.63351 14.6186L8.96124 13.8403L9.01245 14.506C9.10462 15.7554 9.842 16.4518 11.0607 16.4518C12.3204 16.4518 13.109 15.6632 13.109 14.3933C13.109 13.83 13.0578 13.6457 12.812 13.2565C12.515 12.7854 11.8391 12.3553 11.4089 12.3553C11.2758 12.3553 11.1017 12.1709 10.8866 11.792L10.5589 11.2287L11.0505 10.6347C11.583 10.01 12.8325 8.78101 13.406 8.32015L13.7542 8.04363L13.9283 8.33039C14.0205 8.48401 14.5326 9.45695 15.0651 10.4708ZM11.3168 14.4036C11.3168 14.5879 11.2553 14.6698 11.0812 14.6903C10.8354 14.7313 10.692 14.506 10.7945 14.2397C10.8252 14.1475 10.9481 14.0963 11.0812 14.1168C11.2553 14.1373 11.3168 14.2192 11.3168 14.4036Z" fill="#FF3E54"/>
<path d="M20.237 3.49642C19.7352 3.57835 18.9774 3.74222 18.5472 3.85487C17.4616 4.14163 15.7718 4.78684 15.7718 4.8995C15.7718 5.00191 19.5201 11.9456 19.6533 12.0685C19.6943 12.1197 20.1858 12.0378 20.7389 11.8944C26.3204 10.4708 31.8508 14.7108 31.8508 20.4152V21.4599L31.5231 21.5111C31.3387 21.5418 30.9086 21.593 30.5706 21.6237C29.6796 21.7057 28.4711 22.0436 27.4572 22.484C24.8354 23.6106 22.5209 25.9866 21.4558 28.6493L21.1895 29.3355L20.6057 29.1819C19.6943 28.9566 18.0454 28.0963 17.2875 27.4716C15.9049 26.3245 14.8193 24.6757 14.3175 22.9449L14.1024 22.187H9.9137H5.71472L5.78641 22.6171C6.32921 26.0685 7.37383 28.5981 9.27873 31.0766C9.63718 31.5374 9.93419 31.9368 9.93419 31.9573C9.93419 31.988 9.17632 32.6333 8.24435 33.4116L6.55452 34.8147V37.5184V40.2119H7.37383H8.19314V37.9793V35.7569L9.43236 34.7327C10.1083 34.1695 10.8047 33.6062 10.9583 33.473L11.2451 33.2477L11.7981 33.7188C12.6379 34.446 14.3585 35.5623 15.4133 36.0641C17.0622 36.8527 19.1105 37.4467 21.1178 37.7028C21.5992 37.7642 21.5992 37.7642 22.0395 38.5835C23.4836 41.2872 26.1361 43.3355 29.2802 44.1753C30.1507 44.4109 30.4682 44.4416 32.0556 44.4518C33.5714 44.4518 33.981 44.4211 34.7491 44.2265C35.6504 44.0012 37.1968 43.4072 37.627 43.1307C37.8523 42.9873 37.9752 43.0795 41.447 46.3363C43.4134 48.19 45.1851 49.7671 45.3797 49.8491C45.9737 50.0949 46.9671 50.0334 47.6328 49.7159C48.36 49.3575 49.3841 48.2924 49.7323 47.5448C50.0805 46.7766 50.0908 45.8037 49.7528 45.1687C49.5889 44.8615 48.4214 43.694 46.0044 41.4306C43.311 38.9112 42.5019 38.1022 42.5633 37.969C42.8911 37.2214 43.3417 35.6852 43.4851 34.8864C43.823 32.9507 43.5465 30.4826 42.7886 28.6596C42.1844 27.2053 41.0271 25.4745 40.1054 24.6654L39.7777 24.3787L39.9518 23.3033C40.218 21.7774 40.2078 19.2068 39.9415 17.6193C39.3475 14.168 37.6372 10.8702 35.1281 8.3611L34.5443 7.77734L35.5377 6.40498L36.5209 5.03263L42.8399 5.00191L49.1588 4.98143V4.16212V3.3428H42.3585H35.548L34.4009 4.9507C33.766 5.84171 33.2334 6.58933 33.2232 6.59957C33.2129 6.62006 32.7418 6.35378 32.1888 6.00557C30.3965 4.87901 28.4404 4.08018 26.4433 3.6398C25.1222 3.35304 21.6094 3.27111 20.237 3.49642ZM24.3336 5.12481C25.962 5.22722 27.744 5.70857 29.4748 6.52788C30.6321 7.07068 32.1785 8.04361 32.0966 8.17675C32.0659 8.21772 31.7894 8.25868 31.4719 8.25868C30.2941 8.25868 29.4953 9.08824 29.4953 10.307C29.4953 11.5667 30.2839 12.3553 31.5436 12.3553C32.3731 12.3553 32.9569 12.0378 33.3461 11.3721C33.6021 10.9419 33.6123 10.8498 33.5611 10.0714L33.5099 9.23162L34.1859 9.94852C36.3673 12.2528 37.7191 14.9771 38.2517 18.1724C38.3951 19.0019 38.4156 19.6267 38.3848 21.04C38.3541 22.0334 38.3029 22.9346 38.2517 23.0268C38.1903 23.1804 38.1288 23.1702 37.6577 22.9039C36.6643 22.3509 35.466 21.9515 33.8274 21.6135C33.6021 21.5725 33.5919 21.5316 33.5919 20.3845C33.5919 19.0224 33.4075 18.0085 32.9364 16.7386C32.3834 15.2638 31.7382 14.2909 30.4682 13.0209C29.2085 11.7612 28.2254 11.1058 26.7506 10.5528C25.2553 9.99973 24.3746 9.86658 22.5414 9.92804C21.6606 9.95876 20.8515 10.01 20.7389 10.0407C20.5648 10.0919 20.3907 9.82562 19.4075 8.00265C18.793 6.84537 18.2912 5.86219 18.3014 5.82122C18.3629 5.52422 22.0088 4.94046 23.1968 5.05312C23.3709 5.06336 23.8728 5.09409 24.3336 5.12481ZM31.7996 10.307C31.7996 10.4913 31.7382 10.5732 31.5641 10.5937C31.4309 10.6142 31.308 10.563 31.2773 10.4708C31.1749 10.2046 31.3183 9.97924 31.5641 10.0202C31.7382 10.0407 31.7996 10.1226 31.7996 10.307ZM34.2473 23.4774C37.3812 24.1841 40.1771 26.6113 41.2627 29.5813C41.744 30.882 41.826 31.4043 41.826 33.0429C41.826 34.9376 41.6518 35.7057 40.8633 37.2931C39.624 39.8125 37.289 41.7379 34.5648 42.4753C33.4587 42.7825 30.9188 42.8132 29.9049 42.5367C27.8464 41.9734 26.4331 41.1439 25.0608 39.7101C20.5238 34.9581 21.8962 27.2463 27.8055 24.2558C28.5838 23.8666 29.9664 23.4365 30.8267 23.3136C31.6972 23.1907 33.3153 23.2726 34.2473 23.4774ZM12.853 24.1022C12.9759 24.6142 13.6928 26.0173 14.1639 26.6932C15.567 28.6698 17.861 30.288 20.0937 30.8615C20.7491 31.0356 20.7798 31.0458 20.7082 31.3019C20.575 31.773 20.6467 34.4972 20.8106 35.2141C20.9949 36.0334 21.0871 35.9924 19.684 35.6954C17.9225 35.3063 16.1302 34.5689 14.594 33.5755C13.703 33.0019 12.5662 32.1109 12.6379 32.0392C12.6686 32.0085 13.0271 31.9983 13.4265 32.0085C14.041 32.029 14.2151 31.988 14.594 31.7627C15.2495 31.3838 15.567 30.7898 15.567 29.9705C15.567 28.7108 14.7784 27.9222 13.5187 27.9222C12.6891 27.9222 12.1054 28.2397 11.7264 28.8951C11.5011 29.2741 11.4602 29.4482 11.4806 30.0422C11.4909 30.4313 11.4602 30.7386 11.3987 30.7591C11.1734 30.841 9.78056 28.8337 9.07391 27.4204C8.64377 26.5806 8.02928 24.901 7.84494 24.1022L7.78349 23.8256H10.2824H12.7813L12.853 24.1022ZM13.7747 29.9705C13.7747 30.1548 13.7133 30.2368 13.5392 30.2572C13.2934 30.2982 13.15 30.0729 13.2524 29.8066C13.2831 29.7144 13.406 29.6632 13.5392 29.6837C13.7133 29.7042 13.7747 29.7861 13.7747 29.9705ZM45.1442 43.0693C46.834 44.6567 48.2371 46.0393 48.2678 46.1417C48.4521 46.8483 46.9364 48.4358 46.2502 48.2617C46.0864 48.2207 41.4368 43.9705 39.7469 42.3114L39.3987 41.9734L40.0849 41.3385C40.4536 40.9902 40.9247 40.4782 41.1295 40.2017L41.4982 39.6998L41.7952 39.9456C41.9488 40.0788 43.4646 41.4818 45.1442 43.0693Z" fill="#FF3E54"/>
<path d="M30.7037 24.6449C29.8332 24.7986 29.0446 25.0648 28.1127 25.5462C27.3548 25.9354 27.0066 26.2016 26.1566 27.0414C25.3168 27.8915 25.0505 28.2397 24.6613 28.9976C24.0366 30.206 23.7601 31.2097 23.6884 32.5001C23.4631 36.484 25.8288 39.9149 29.6489 41.1336C30.6116 41.4409 32.793 41.533 33.8581 41.3077C36.91 40.6625 39.2861 38.4811 40.2487 35.4496C40.5662 34.446 40.6482 32.3875 40.4126 31.2507C39.7264 27.9427 37.0637 25.3311 33.7147 24.6859C32.9056 24.5323 31.4923 24.5118 30.7037 24.6449ZM33.5406 26.4372C35.4148 26.8264 37.248 28.2602 38.0776 29.9705C38.6408 31.1073 38.8149 31.8549 38.8149 33.0224C38.8149 34.6508 38.2926 36.1051 37.2583 37.3238C35.9269 38.8908 34.1961 39.6998 32.1375 39.7101C30.1609 39.7101 28.5735 39.0137 27.1705 37.5184C25.1836 35.3882 24.8457 32.1212 26.3409 29.5813C26.771 28.8439 27.959 27.6559 28.6862 27.2258C30.1405 26.3757 31.8713 26.089 33.5406 26.4372Z" fill="#FF3E54"/>
<path d="M39.327 7.43935V8.25867H41.3753H43.4236V7.43935V6.62004H41.3753H39.327V7.43935Z" fill="#FF3E54"/>
<path d="M45.0623 7.43935V8.25867H47.1105H49.1588V7.43935V6.62004H47.1105H45.0623V7.43935Z" fill="#FF3E54"/>
<path d="M39.327 10.7166V11.5359H44.2429H49.1588V10.7166V9.89732H44.2429H39.327V10.7166Z" fill="#FF3E54"/>
<path d="M0 42.6699V43.4892H3.27725H6.55451V42.6699V41.8506H3.27725H0V42.6699Z" fill="#FF3E54"/>
<path d="M8.19312 42.6699V43.4892H12.6993H17.2056V42.6699V41.8506H12.6993H8.19312V42.6699Z" fill="#FF3E54"/>
<path d="M0 45.947V46.7664H8.60279H17.2056V45.947V45.1277H8.60279H0V45.947Z" fill="#FF3E54"/>
</svg>
