<svg width="50" height="50" viewBox="0 0 50 50" fill="none" xmlns="http://www.w3.org/2000/svg">
<path d="M7.73578 0.104755C7.07241 0.298664 6.43967 0.829353 6.11309 1.4621L5.80692 2.07444L5.7763 4.40132L5.73548 6.7282H4.23525C2.06146 6.7282 1.37768 7.02416 0.785757 8.23863L0.5 8.82035V26.1189V43.4174L0.734729 43.897C0.867402 44.1522 1.17357 44.5502 1.41851 44.7849C2.23495 45.5401 1.82673 45.5095 11.8997 45.5095H20.8602V47.5507C20.8602 49.4591 20.8704 49.602 21.0643 49.7959C21.2684 50 21.4011 50 27.8 50C34.1989 50 34.3316 50 34.5357 49.7959C34.7296 49.602 34.7398 49.4591 34.7398 47.5507V45.5095H38.3934C42.588 45.5095 42.8125 45.4789 43.5881 44.7645C44.4045 44.0195 44.476 43.7644 44.5168 41.1007L44.5576 38.7942L46.2109 38.7534C47.6703 38.7228 47.9051 38.6922 48.2725 38.4983C48.844 38.1921 49.3237 37.7022 49.5788 37.1409L49.7931 36.6817V19.373V2.07444L49.4869 1.4621C49.1502 0.808945 48.5174 0.288456 47.8234 0.0945511C47.3438 -0.0381241 8.19503 -0.027916 7.73578 0.104755ZM47.5989 1.57436C47.752 1.65601 47.9867 1.84991 48.099 1.99279C48.3031 2.25814 48.3133 2.38061 48.3133 5.36065V8.46315H35.7706H23.2279L21.6154 6.83025C20.4112 5.60558 19.9111 5.16674 19.6457 5.0953C19.1559 4.96263 12.9611 4.96263 12.4712 5.0953C12.2671 5.15654 11.9813 5.34024 11.8384 5.51373C11.5833 5.80969 11.5731 5.88113 11.5731 7.14663V8.46315H9.36868H7.17447L7.20509 5.42188C7.2357 2.05403 7.24591 2.04382 7.92969 1.62539C8.24606 1.42128 8.60326 1.42128 27.7796 1.42128C44.8128 1.42128 47.3438 1.44169 47.5989 1.57436ZM20.7275 8.01411C21.5542 8.89179 22.3604 9.66742 22.5135 9.74906C22.7482 9.87153 24.7996 9.89194 35.5563 9.89194H48.3133V23.2001V36.498L48.099 36.7735C47.6295 37.3655 47.8745 37.345 40.7918 37.3348H34.2806L34.8215 37.0899C35.2807 36.8756 35.393 36.7735 35.5767 36.3551C35.7502 35.9673 35.7706 35.804 35.689 35.508C35.6379 35.3039 34.0152 32.3035 32.0864 28.8336C28.8002 22.9143 28.5654 22.5163 28.2184 22.3734C27.9021 22.2407 27.8 22.2305 27.4428 22.353C27.0448 22.4959 26.9938 22.5673 25.269 25.6596C20.1764 34.7834 19.8907 35.3243 19.9009 35.8142C19.9111 36.4265 20.1764 36.8143 20.8092 37.1001L21.3195 37.3348H14.7879C8.491 37.345 8.24606 37.3348 7.92969 37.1409C7.74599 37.0389 7.52146 36.8246 7.41941 36.6613C7.24591 36.3959 7.2357 35.7121 7.20509 23.1388L7.18468 9.89194H9.67485H12.165L12.4814 9.62659C12.8896 9.28981 13.0019 8.84076 13.0019 7.51403V6.42203H16.1044H19.2069L20.7275 8.01411ZM5.7763 22.4244L5.80692 36.6919L6.11309 37.3042C6.44987 37.9574 7.08262 38.4779 7.7766 38.6718C8.02154 38.733 10.8179 38.7738 15.5227 38.7738C22.8911 38.7738 22.8911 38.7738 23.0034 38.9881C23.0748 39.1004 23.1463 39.4474 23.1769 39.7536L23.2381 40.3047H22.738C22.0236 40.3047 21.5542 40.468 21.2072 40.8252C20.9112 41.1313 20.9112 41.1313 20.8806 42.6111L20.85 44.0807H11.9711C2.33701 44.0807 2.65338 44.1012 2.20434 43.5194L1.97981 43.2337V26.1495C1.97981 10.2491 1.99002 9.03467 2.15331 8.75912C2.44927 8.25904 2.79626 8.15699 4.34752 8.15699H5.75589L5.7763 22.4244ZM27.0856 27.017V28.5172L26.708 28.7213C25.9732 29.1193 25.514 30.2317 25.7487 31.089C26.0344 32.1504 26.7897 32.6811 27.9123 32.63C28.4532 32.5994 28.6777 32.5382 28.9941 32.3137C30.229 31.4564 30.1983 29.548 28.9328 28.7723L28.5246 28.5172L28.5144 26.9965C28.5144 26.1597 28.5348 25.4963 28.5552 25.5167C28.6165 25.578 34.2296 35.7121 34.2296 35.753C34.2296 35.7836 34.0561 35.855 33.8519 35.9265C32.3415 36.4163 31.0964 38.0186 30.9842 39.6005L30.9331 40.3047H27.8H24.6669L24.6159 39.5903C24.5036 38.1207 23.4626 36.6715 22.0338 35.9979L21.3603 35.6917L21.5542 35.3652C21.6562 35.1917 22.9319 32.9056 24.3811 30.2725C25.8303 27.6497 27.0346 25.5065 27.055 25.5065C27.0754 25.5065 27.0856 26.1801 27.0856 27.017ZM28.3001 30.1603C28.4226 30.3134 28.5144 30.4869 28.5144 30.5583C28.5144 30.8237 28.096 31.2217 27.8102 31.2217C27.2081 31.2217 26.9223 30.64 27.2897 30.1705C27.5857 29.8031 28.0143 29.8031 28.3001 30.1603ZM43.088 40.9578C43.037 44.2542 43.3125 44.0807 38.3424 44.0807H34.75L34.7194 42.6111C34.6888 41.2028 34.6786 41.1211 34.4337 40.8558C34.0765 40.4782 33.6172 40.3047 32.9436 40.3047H32.3619L32.4232 39.7536C32.5354 38.6718 31.9639 38.7738 37.9138 38.7738H43.1288L43.088 40.9578ZM33.311 45.1523V48.5712H27.8H22.289V45.1523V41.7335H27.8H33.311V45.1523Z" fill="#FF3E54"/>
<path d="M35.097 3.21747C34.3316 3.61549 33.9846 4.24824 34.0458 5.11572C34.1173 6.14649 34.8827 6.83026 35.9441 6.83026C36.9034 6.83026 37.5464 6.34039 37.8015 5.42189C38.0158 4.58503 37.5974 3.6257 36.8524 3.2685C36.3217 3.01336 35.5358 2.99295 35.097 3.21747ZM36.3319 4.73811C36.6074 5.15654 35.9339 5.6362 35.5767 5.27901C35.4032 5.10551 35.4236 4.82996 35.6175 4.63605C35.8318 4.42174 36.1584 4.47276 36.3319 4.73811Z" fill="#FF3E54"/>
<path d="M39.4242 3.33992C38.2097 4.11555 38.2811 5.98317 39.5364 6.62613C39.9753 6.85065 40.7815 6.89147 41.2408 6.71798C42.1899 6.36078 42.6491 5.10549 42.2001 4.11555C41.8939 3.45218 41.3734 3.1154 40.5672 3.07457C39.9651 3.04396 39.8426 3.07457 39.4242 3.33992ZM40.8019 4.64624C41.1387 4.97282 40.9346 5.40145 40.4345 5.40145C40.0467 5.40145 39.8732 5.06467 40.0977 4.72788C40.2814 4.44213 40.5672 4.41151 40.8019 4.64624Z" fill="#FF3E54"/>
<path d="M44.18 3.19706C43.5166 3.49303 43.1084 4.15639 43.1084 4.94222C43.1084 5.50353 43.2513 5.88114 43.5983 6.24854C44.0065 6.68738 44.3637 6.83026 45.0066 6.83026C46.1395 6.83026 46.8845 6.08525 46.8845 4.95243C46.8845 4.63605 46.8232 4.24824 46.7416 4.09516C46.5477 3.72775 46.0782 3.29912 45.7312 3.16645C45.3332 3.01336 44.5474 3.03377 44.18 3.19706ZM45.3332 4.60544C45.4047 4.67688 45.4557 4.81976 45.4557 4.94222C45.4557 5.06469 45.4047 5.20757 45.3332 5.27901C45.2618 5.35045 45.1189 5.40148 44.9964 5.40148C44.874 5.40148 44.7311 5.35045 44.6597 5.27901C44.5882 5.20757 44.5372 5.06469 44.5372 4.94222C44.5372 4.81976 44.5882 4.67688 44.6597 4.60544C44.7311 4.534 44.874 4.48297 44.9964 4.48297C45.1189 4.48297 45.2618 4.534 45.3332 4.60544Z" fill="#FF3E54"/>
<path d="M25.5752 14.8927C25.1465 15.158 24.9424 15.6377 24.9424 16.4235V17.0359H20.3499H15.7676L15.6349 16.597C15.4512 15.9847 14.6245 15.1784 13.9918 15.0049C12.4303 14.5661 10.8995 15.3825 10.5525 16.8419C10.0524 18.9341 11.8792 20.6588 13.9612 20.0567C14.6143 19.8628 15.2369 19.3627 15.492 18.8218L15.6655 18.4646H18.6966H21.7174L20.9622 18.9239C18.2271 20.618 16.0839 23.3531 15.1858 26.2923L14.9307 27.1394H14.3082C13.4611 27.1394 13.0223 27.3639 12.7773 27.9252C12.6038 28.3233 12.5834 28.5682 12.614 30.1501C12.6446 31.7523 12.6651 31.9463 12.859 32.2116C13.2774 32.7729 13.5938 32.8546 15.5022 32.8546C18.2373 32.8546 18.3088 32.7729 18.3088 29.946C18.3088 28.2824 18.2884 28.0783 18.1047 27.7722C17.8699 27.3843 17.3698 27.1394 16.8289 27.1394C16.482 27.1394 16.4718 27.1292 16.533 26.8537C16.7473 25.9862 17.5944 24.2716 18.2986 23.3225C19.3191 21.9243 20.7275 20.6895 22.2175 19.8934C22.9727 19.4852 24.5138 18.8729 24.7791 18.8729C24.8608 18.8729 24.9628 19.0668 25.0343 19.3219C25.1057 19.6077 25.2588 19.8628 25.4629 20.0363L25.7793 20.3016H27.7694C29.4635 20.3016 29.8003 20.271 30.0554 20.1282C30.382 19.9342 30.6576 19.4342 30.6576 19.0464V18.7912L31.1985 18.9443C32.0149 19.1688 34.0968 20.2302 34.8419 20.8017C36.6278 22.1489 38.0974 24.1185 38.8731 26.1801C39.1997 27.0578 39.1997 27.1394 38.822 27.1394C38.3322 27.1394 37.8219 27.4048 37.5974 27.7722C37.4137 28.0783 37.3933 28.2824 37.3933 29.997C37.3933 32.8035 37.4443 32.8546 40.2202 32.8546C42.1083 32.8546 42.4348 32.7729 42.8431 32.2116C43.037 31.9565 43.0574 31.7523 43.088 30.2623C43.1288 28.3845 43.0472 27.9252 42.5981 27.4966C42.3124 27.2211 42.2001 27.1904 41.4959 27.1598L40.7101 27.119L40.4243 26.2413C39.4446 23.1694 37.281 20.4547 34.5561 18.8627L33.8723 18.4646H36.9544C39.9957 18.4646 40.0365 18.4646 40.0977 18.679C40.21 19.0157 40.8632 19.6791 41.302 19.9138C42.2001 20.3629 43.486 20.22 44.2718 19.5771C45.3638 18.6688 45.4557 16.7297 44.4555 15.6785C43.7514 14.9335 42.3838 14.6681 41.3939 15.0968C40.7509 15.3723 40.1386 16.0357 39.9549 16.6174L39.8324 17.0359H35.2501H30.6576V16.4235C30.6576 15.6377 30.4534 15.158 30.0248 14.8927C29.7186 14.709 29.5145 14.6886 27.8 14.6886C26.0854 14.6886 25.8813 14.709 25.5752 14.8927ZM29.2288 17.5461V18.9749H27.8H26.3712V17.5461V16.1173H27.8H29.2288V17.5461ZM13.9306 16.6072C14.3286 16.9644 14.4408 17.6482 14.1755 18.1483C14.002 18.4953 13.5121 18.7708 13.0835 18.7708C12.5426 18.7708 11.8792 18.0972 11.8792 17.5461C11.8792 17.4237 11.9507 17.1787 12.0323 16.995C12.3691 16.2908 13.3488 16.0867 13.9306 16.6072ZM43.0982 16.4745C43.2615 16.5562 43.4656 16.7909 43.5677 16.995C44.18 18.2911 42.5267 19.3831 41.5878 18.3013C41.3326 18.0156 41.2714 17.8523 41.2714 17.4849C41.2714 17.0869 41.3224 16.9644 41.6184 16.6684C41.9041 16.3827 42.047 16.3215 42.3838 16.3215C42.6185 16.3215 42.9451 16.3929 43.0982 16.4745ZM16.88 29.997V31.4258H15.4512H14.0224V29.997V28.5682H15.4512H16.88V29.997ZM41.6082 29.5581C41.649 30.1092 41.6796 30.7522 41.6796 30.9869V31.4258H40.2508H38.822V31.089C38.822 30.8951 38.7914 30.2521 38.7506 29.6602L38.6894 28.5682H40.1182H41.5469L41.6082 29.5581Z" fill="#FF3E54"/>
</svg>
