<svg width="50" height="22" viewBox="0 0 50 22" fill="none" xmlns="http://www.w3.org/2000/svg">
<path d="M30.7031 1.3125C30.7031 2.32812 30.8594 3.89062 28.4375 4.75C27.7344 4.98438 27.1875 5.53125 27.1875 5.53125C27.1875 3.10938 27.5781 2.17188 28.5938 1.70312C29.2969 1.3125 30.7031 1.3125 30.7031 1.3125ZM21.6406 4.125L18.9844 14.4375L16.7188 6C16.1719 3.5 15.1562 2.17188 12.9688 2.17188C10.8594 2.17188 9.76562 3.42188 9.21875 6L6.95312 14.4375L4.29688 4.125C3.82812 2.01562 1.79688 1.07812 0 1.3125L5.07812 20.6875C5.07812 20.6875 6.79688 20.8438 7.65625 20.375C8.75 19.8281 9.29688 19.4375 9.92188 16.7812C10.5469 14.4375 12.1875 7.48438 12.3438 7.01562C12.7344 5.84375 13.2031 5.92188 13.5938 7.01562C13.75 7.48438 15.3906 14.4375 16.0156 16.7812C16.6406 19.4375 17.1875 19.8281 18.2812 20.375C19.1406 20.8438 20.8594 20.6875 20.8594 20.6875L25.9375 1.3125C24.0625 1.07812 22.1094 2.01562 21.6406 4.125ZM30.7031 4.51562C30.7031 4.51562 30.3906 4.98438 29.6094 5.45312C29.1406 5.6875 28.75 5.84375 28.2031 6.07812C27.0312 6.625 27.1875 7.17188 27.1875 8.8125V20.6875C27.1875 20.6875 28.5156 20.8438 29.375 20.4531C30.4688 19.9062 30.7031 19.3594 30.7031 16.9375V5.21875V4.51562ZM43.4375 11.0781L50 1.39062C50 1.39062 47.1875 0.921875 45.8594 2.17188C44.8438 3.10938 43.9844 4.51562 41.6406 7.875C41.5625 7.875 41.1719 8.65625 40.625 7.875C38.2812 4.51562 37.4219 3.10938 36.4062 2.17188C35 0.921875 32.2656 1.39062 32.2656 1.39062L38.75 11.0781L32.2656 20.6875C32.2656 20.6875 35.1562 21.0781 36.4844 19.8281C37.4219 19.0469 37.8906 18.2656 40.625 14.2812C41.1719 13.5 41.5625 14.2812 41.6406 14.2812C43.9062 17.6406 44.6875 18.8906 45.7812 19.8281C47.1094 21.0781 49.9219 20.6875 49.9219 20.6875L43.4375 11.0781Z" fill="#FF3E54"/>
</svg>
