<svg width="40" height="40" viewBox="0 0 40 40" fill="none" xmlns="http://www.w3.org/2000/svg">
<path d="M4.76562 13.2812L12.7344 35C7.1875 32.2656 3.35938 26.6406 3.35938 20C3.35938 17.6562 3.82812 15.3125 4.76562 13.2812ZM31.1719 19.2188C31.1719 17.1094 30.4688 15.7031 29.8438 14.6094C28.9844 13.2812 28.2031 12.1094 28.2031 10.7031C28.2031 9.21875 29.375 7.73438 30.9375 7.73438C31.0156 7.73438 31.0938 7.73438 31.1719 7.8125C28.2031 5.07812 24.2969 3.4375 20 3.4375C14.1406 3.4375 9.0625 6.40625 6.09375 10.9375C6.48438 10.9375 6.79688 10.9375 7.10938 10.9375C8.90625 10.9375 11.5625 10.7031 11.5625 10.7031C12.5 10.625 12.5781 11.9531 11.7188 12.1094C11.7188 12.1094 10.7812 12.1875 9.76562 12.2656L15.8594 30.2344L19.4531 19.2969L16.875 12.2656C16.0156 12.1875 15.1562 12.1094 15.1562 12.1094C14.2188 12.0312 14.375 10.625 15.2344 10.7031C15.2344 10.7031 17.9688 10.9375 19.6094 10.9375C21.3281 10.9375 24.0625 10.7031 24.0625 10.7031C24.9219 10.625 25.0781 11.9531 24.1406 12.1094C24.1406 12.1094 23.2812 12.1875 22.2656 12.2656L28.2812 30.0781L29.9219 24.5312C30.625 22.2656 31.1719 20.625 31.1719 19.2188ZM20.2344 21.4844L15.2344 36.0156C16.7969 36.4062 18.3594 36.6406 20 36.6406C21.875 36.6406 23.75 36.3281 25.4688 35.7031C25.4688 35.625 25.3906 35.5469 25.3906 35.4688L20.2344 21.4844ZM34.5312 12.0312C34.6094 12.5781 34.6875 13.125 34.6875 13.75C34.6875 15.4688 34.375 17.3438 33.3594 19.6875L28.2812 34.375C33.2812 31.4844 36.5625 26.1719 36.5625 20C36.5625 17.1094 35.8594 14.4531 34.5312 12.0312ZM39.375 20C39.375 30.7031 30.625 39.375 20 39.375C9.29688 39.375 0.625 30.7031 0.625 20C0.625 9.375 9.29688 0.625 20 0.625C30.625 0.625 39.375 9.375 39.375 20ZM38.4375 20C38.4375 9.84375 30.1562 1.5625 20 1.5625C9.76562 1.5625 1.48438 9.84375 1.48438 20C1.48438 30.2344 9.76562 38.5156 20 38.5156C30.1562 38.5156 38.4375 30.2344 38.4375 20Z" fill="#FF3E54"/>
</svg>
